<?xml version="1.0" standalone="no"?>
<!DOCTYPE svg PUBLIC "-//W3C//DTD SVG 20010904//EN"
 "http://www.w3.org/TR/2001/REC-SVG-20010904/DTD/svg10.dtd">
<svg version="1.0" xmlns="http://www.w3.org/2000/svg"
 width="436.000000pt" height="378.000000pt" viewBox="0 0 436.000000 378.000000"
 preserveAspectRatio="xMidYMid meet">

<g transform="translate(0.000000,378.000000) scale(0.100000,-0.100000)"
fill="#000000" stroke="none">
<path d="M1808 3579 c-22 -12 -23 -52 -4 -69 19 -15 58 -9 64 10 5 13 3 13
-11 1 -23 -18 -47 -7 -47 23 0 28 17 37 43 24 10 -5 17 -5 17 1 0 8 -24 21
-38 21 -4 0 -15 -5 -24 -11z"/>
<path d="M2180 3545 c0 -25 4 -45 8 -45 5 0 10 20 10 45 1 25 -2 45 -8 45 -5
0 -10 -20 -10 -45z"/>
<path d="M2329 3573 c-1 -10 -2 -27 -3 -37 -1 -25 -26 -33 -26 -9 0 11 6 25
13 32 10 10 8 12 -8 9 -15 -2 -20 -11 -20 -33 0 -25 4 -31 28 -33 26 -3 27 -2
27 42 0 44 -8 65 -11 29z"/>
<path d="M2030 3541 c0 -26 5 -41 13 -41 15 0 14 73 -2 78 -7 2 -11 -11 -11
-37z"/>
<path d="M1891 3551 c-15 -28 -3 -51 26 -51 21 0 24 4 21 32 -4 39 -31 50 -47
19z m39 -22 c0 -10 -7 -19 -15 -19 -15 0 -21 31 -9 43 11 10 24 -3 24 -24z"/>
<path d="M1961 3530 l1 -35 9 33 c11 36 29 34 29 -4 0 -13 5 -24 10 -24 12 0
13 40 2 57 -4 7 -18 11 -30 10 -18 -1 -22 -7 -21 -37z"/>
<path d="M2071 3533 c2 -31 3 -33 6 -10 2 15 9 27 14 27 5 0 9 5 9 10 0 6 -7
10 -15 10 -11 0 -15 -10 -14 -37z"/>
<path d="M2114 3556 c-3 -8 -4 -23 -2 -33 5 -25 51 -25 56 0 7 36 -42 65 -54
33z m36 -27 c0 -20 -15 -26 -25 -9 -9 15 3 43 15 35 5 -3 10 -15 10 -26z"/>
<path d="M2214 3558 c-5 -8 0 -9 14 -6 12 4 22 3 22 -2 0 -4 -9 -10 -20 -13
-11 -3 -20 -12 -20 -21 0 -11 9 -15 34 -14 33 1 33 2 25 32 -5 17 -9 32 -9 33
0 9 -40 1 -46 -9z m31 -38 c-3 -5 -11 -10 -16 -10 -6 0 -7 5 -4 10 3 6 11 10
16 10 6 0 7 -4 4 -10z"/>
<path d="M2361 3551 c-15 -28 -3 -51 26 -51 21 0 24 4 21 32 -4 39 -31 50 -47
19z m39 -22 c0 -10 -7 -19 -15 -19 -15 0 -21 31 -9 43 11 10 24 -3 24 -24z"/>
<path d="M2431 3533 c2 -31 3 -33 6 -10 2 15 9 27 14 27 5 0 9 5 9 10 0 6 -7
10 -15 10 -11 0 -15 -10 -14 -37z"/>
<path d="M2480 3555 c-26 -32 15 -75 44 -45 8 9 6 11 -11 5 -14 -4 -23 -2 -23
4 0 6 9 11 20 11 24 0 27 25 4 34 -21 8 -20 8 -34 -9z"/>
<path d="M2544 3559 c-4 -7 4 -20 17 -31 l24 -20 -22 5 c-13 3 -23 1 -23 -5 0
-13 53 -6 57 9 2 6 -5 14 -16 18 -28 9 -27 25 1 17 14 -3 19 -2 14 6 -9 15
-43 15 -52 1z"/>
<path d="M1408 3083 c-102 -180 -662 -1140 -674 -1158 -8 -11 -14 -25 -14 -33
0 -7 72 -136 160 -287 280 -482 476 -818 524 -902 l48 -83 741 0 742 1 368
634 368 635 -124 212 c-68 117 -206 355 -307 528 -101 173 -209 360 -242 414
-32 55 -58 104 -58 108 0 4 -335 8 -744 8 l-744 0 -44 -77z m1699 -263 c101
-173 203 -349 227 -390 24 -41 105 -180 179 -308 l135 -234 -47 -81 c-27 -45
-95 -163 -153 -262 -58 -99 -162 -279 -233 -400 -70 -121 -151 -260 -180 -310
-28 -49 -65 -112 -82 -140 l-29 -50 -730 -3 -730 -2 -191 327 c-105 181 -268
462 -363 625 l-172 298 100 172 c55 95 202 349 327 563 125 215 243 418 263
453 l36 62 730 -2 730 -3 183 -315z"/>
<path d="M1812 2948 c-16 -16 -15 -53 2 -68 19 -15 58 -9 64 10 5 13 3 13 -11
1 -23 -18 -47 -7 -47 23 0 28 17 37 44 24 14 -8 17 -7 14 4 -6 17 -50 22 -66
6z"/>
<path d="M2250 2945 c0 -8 -6 -12 -14 -9 -18 7 -38 -28 -30 -50 3 -9 16 -15
30 -14 21 2 24 7 24 45 0 24 -2 43 -5 43 -3 0 -5 -7 -5 -15z m-3 -49 c-4 -9
-11 -16 -17 -16 -11 0 -14 33 -3 44 11 10 26 -11 20 -28z"/>
<path d="M1900 2929 c0 -6 7 -9 15 -6 8 4 17 2 20 -3 4 -6 -3 -10 -14 -10 -12
0 -21 -4 -21 -10 0 -5 -1 -13 -2 -17 -2 -5 12 -9 29 -10 31 -1 33 0 27 25 -4
15 -9 30 -11 35 -7 11 -43 8 -43 -4z m35 -39 c-3 -5 -10 -10 -16 -10 -5 0 -9
5 -9 10 0 6 7 10 16 10 8 0 12 -4 9 -10z"/>
<path d="M1970 2920 c0 -11 6 -20 14 -20 8 0 18 -5 22 -12 5 -8 0 -9 -14 -6
-12 4 -22 2 -22 -3 0 -5 11 -9 25 -9 28 0 35 27 10 36 -8 4 -15 10 -15 15 0 4
7 6 15 3 8 -4 15 -1 15 5 0 6 -11 11 -25 11 -18 0 -25 -5 -25 -20z"/>
<path d="M2034 2926 c-11 -29 0 -51 26 -51 21 0 25 5 25 30 0 24 -5 31 -23 33
-13 2 -24 -3 -28 -12z m41 -21 c0 -10 -6 -20 -12 -22 -8 -3 -13 5 -13 22 0 17
5 25 13 23 6 -3 12 -13 12 -23z"/>
<path d="M2110 2920 c0 -11 7 -20 15 -20 8 0 15 -5 15 -11 0 -6 -9 -8 -22 -4
-18 6 -20 4 -12 -5 14 -15 46 -10 52 8 2 7 -5 16 -17 19 -12 3 -21 10 -21 15
0 5 10 6 21 3 15 -5 19 -4 15 4 -12 19 -46 13 -46 -9z"/>
<path d="M2284 2926 c-15 -39 23 -74 50 -46 8 9 6 11 -11 6 -12 -4 -24 -2 -28
4 -4 6 4 10 19 10 28 0 33 9 14 28 -16 16 -37 15 -44 -2z m31 -6 c3 -5 -1 -10
-10 -10 -9 0 -13 5 -10 10 3 6 8 10 10 10 2 0 7 -4 10 -10z"/>
<path d="M2391 2908 c-1 -29 3 -38 15 -38 12 0 14 3 6 13 -5 6 -12 23 -15 37
-3 18 -5 15 -6 -12z"/>
<path d="M2430 2905 c0 -19 4 -35 8 -35 4 0 9 16 10 35 2 19 -2 35 -8 35 -5 0
-10 -16 -10 -35z"/>
<path d="M2464 2929 c-4 -7 4 -20 17 -31 l24 -20 -22 5 c-13 3 -23 1 -23 -4 0
-5 11 -9 25 -9 18 0 25 5 25 20 0 11 -7 20 -15 20 -8 0 -15 4 -15 10 0 5 7 7
15 4 8 -4 15 -1 15 5 0 14 -37 14 -46 0z"/>
<path d="M2530 2925 c-18 -21 -3 -55 25 -55 27 0 39 24 25 51 -13 23 -33 25
-50 4z m40 -26 c0 -10 -7 -19 -15 -19 -15 0 -21 31 -9 43 11 10 24 -3 24 -24z"/>
<path d="M1721 2610 c-204 -363 -371 -669 -371 -679 0 -7 93 -181 208 -386
l207 -375 429 3 429 2 208 375 c119 214 206 381 203 390 -9 26 -396 724 -409
738 -9 10 -107 13 -434 15 l-423 2 -47 -85z m1092 -305 l208 -375 -52 -93
c-60 -106 -45 -80 -224 -399 l-138 -248 -416 0 -416 0 -200 362 c-110 199
-201 367 -203 374 -2 6 90 179 203 383 l207 371 411 0 412 0 208 -375z"/>
<path d="M1917 2453 c-4 -3 -7 -23 -7 -44 0 -30 4 -38 23 -43 32 -8 47 -7 47
4 0 6 -11 10 -25 10 -34 0 -32 28 3 33 l27 4 -27 2 c-35 1 -37 21 -3 21 14 0
25 5 25 10 0 11 -53 14 -63 3z"/>
<path d="M2180 2445 c0 -9 -7 -15 -16 -13 -21 4 -39 -24 -31 -46 4 -9 17 -16
32 -16 23 0 25 4 25 45 0 25 -2 45 -5 45 -3 0 -5 -7 -5 -15z m-2 -42 c-5 -25
-28 -28 -28 -4 0 12 6 21 16 21 9 0 14 -7 12 -17z"/>
<path d="M2320 2445 c0 -8 -3 -14 -7 -14 -24 4 -33 -4 -33 -30 0 -31 13 -41
43 -33 13 3 17 15 17 48 0 24 -4 44 -10 44 -5 0 -10 -7 -10 -15z m0 -45 c0
-11 -7 -20 -15 -20 -8 0 -15 9 -15 20 0 11 7 20 15 20 8 0 15 -9 15 -20z"/>
<path d="M2070 2410 c0 -22 5 -40 10 -40 6 0 10 18 10 40 0 22 -4 40 -10 40
-5 0 -10 -18 -10 -40z"/>
<path d="M2001 2401 c1 -30 2 -32 8 -12 9 34 31 39 31 7 0 -14 4 -26 9 -26 5
0 5 15 2 33 -5 24 -12 32 -29 33 -19 1 -22 -4 -21 -35z"/>
<path d="M2113 2405 c0 -22 2 -30 4 -17 2 12 2 30 0 40 -3 9 -5 -1 -4 -23z"/>
<path d="M2215 2431 c-3 -7 3 -11 17 -12 l23 0 -22 -9 c-33 -14 -29 -39 5 -38
27 1 28 3 23 32 -7 31 -33 46 -46 27z m30 -41 c-3 -5 -11 -10 -16 -10 -6 0 -7
5 -4 10 3 6 11 10 16 10 6 0 7 -4 4 -10z"/>
<path d="M2362 2428 c-29 -29 5 -79 39 -57 11 7 9 9 -8 9 -13 0 -23 5 -23 10
0 6 9 10 20 10 11 0 20 4 20 8 0 9 -21 32 -30 32 -3 0 -11 -5 -18 -12z"/>
<path d="M2432 2428 c-10 -10 -8 -16 10 -30 l23 -18 -25 0 c-22 -1 -23 -2 -7
-11 13 -8 22 -7 34 2 13 12 13 15 -7 31 l-22 18 23 0 c19 0 21 2 9 10 -20 13
-24 12 -38 -2z"/>
<path d="M1680 2180 l0 -50 35 0 c19 0 35 5 35 10 0 6 -11 10 -25 10 -34 0
-32 28 3 33 l27 4 -27 2 c-35 1 -37 21 -3 21 14 0 25 5 25 10 0 6 -16 10 -35
10 l-35 0 0 -50z"/>
<path d="M1979 2214 c-1 -5 0 -22 1 -39 3 -46 16 -51 15 -5 -1 34 -13 69 -16
44z"/>
<path d="M1760 2200 c0 -6 7 -25 16 -42 l16 -32 14 25 c7 13 13 33 13 44 -1
15 -4 13 -14 -10 l-13 -30 -11 28 c-11 27 -21 36 -21 17z"/>
<path d="M1842 2198 c-29 -29 5 -79 39 -57 11 7 9 9 -8 9 -13 0 -23 5 -23 11
0 5 4 8 8 5 4 -2 14 -1 22 4 11 7 11 11 1 24 -16 19 -23 20 -39 4z"/>
<path d="M1918 2203 c-19 -5 -21 -17 -8 -48 8 -18 9 -17 9 8 1 39 29 35 34 -5
4 -28 4 -26 3 6 -1 40 -8 47 -38 39z"/>
<path d="M2022 2198 c-27 -27 -2 -75 32 -62 21 8 21 60 0 68 -20 8 -18 8 -32
-6z m38 -28 c0 -11 -7 -20 -15 -20 -8 0 -15 9 -15 20 0 11 7 20 15 20 8 0 15
-9 15 -20z"/>
<path d="M2090 2195 c-9 -11 -7 -16 9 -25 28 -14 27 -29 -1 -23 -20 4 -20 3
-6 -6 17 -11 48 -5 48 10 0 4 -9 14 -21 23 -19 13 -20 14 -2 18 16 3 16 4 1
10 -9 4 -22 1 -28 -7z"/>
<path d="M1900 1955 l0 -55 33 0 c41 0 57 15 57 55 0 33 -28 55 -70 55 -17 0
-20 -7 -20 -55z m58 26 c21 -13 11 -55 -14 -59 -17 -2 -21 3 -22 33 -1 35 9
43 36 26z"/>
<path d="M2370 1999 c0 -5 5 -7 10 -4 6 3 10 8 10 11 0 2 -4 4 -10 4 -5 0 -10
-5 -10 -11z"/>
<path d="M2017 1973 c-15 -14 -7 -62 12 -68 40 -12 76 30 51 60 -13 15 -51 20
-63 8z m43 -34 c0 -10 -7 -19 -15 -19 -15 0 -21 31 -9 43 11 10 24 -3 24 -24z"/>
<path d="M2100 1940 c0 -45 17 -55 22 -13 4 39 28 42 28 4 0 -17 5 -31 10 -31
6 0 10 14 10 30 0 17 5 30 10 30 6 0 10 -13 10 -30 0 -21 5 -30 16 -30 12 0
14 9 12 37 l-3 38 -57 3 -58 2 0 -40z"/>
<path d="M2240 1940 c0 -22 5 -40 10 -40 6 0 10 18 10 40 0 22 -4 40 -10 40
-5 0 -10 -18 -10 -40z"/>
<path d="M2280 1941 c0 -23 5 -41 10 -41 6 0 10 14 10 30 0 20 5 30 15 30 10
0 15 -10 15 -30 0 -16 5 -30 11 -30 6 0 9 16 7 38 -3 34 -6 37 -35 40 -32 3
-33 2 -33 -37z"/>
<path d="M2370 1940 c0 -22 5 -40 10 -40 6 0 10 18 10 40 0 22 -4 40 -10 40
-5 0 -10 -18 -10 -40z"/>
<path d="M2422 1968 c-35 -35 4 -82 48 -58 34 18 20 70 -20 70 -9 0 -21 -5
-28 -12z m41 -34 c-8 -20 -33 -17 -33 4 0 10 3 22 7 25 10 11 32 -13 26 -29z"/>
<path d="M1670 1675 c0 -25 5 -45 10 -45 6 0 10 18 10 41 0 32 3 40 17 37 22
-4 29 -28 8 -28 -14 0 -14 -3 2 -25 21 -29 38 -33 24 -7 -7 13 -7 22 1 30 17
17 -9 42 -43 42 -28 0 -29 -2 -29 -45z"/>
<path d="M2079 1705 c-7 -6 2 -75 10 -75 3 0 6 16 5 35 -1 35 -6 49 -15 40z"/>
<path d="M1771 1686 c-19 -23 -4 -56 25 -56 13 0 24 4 24 9 0 5 -9 7 -20 4
-11 -3 -20 0 -20 6 0 6 9 11 21 11 14 0 19 5 17 17 -4 23 -31 28 -47 9z m34
-6 c3 -5 -1 -10 -10 -10 -9 0 -13 5 -10 10 3 6 8 10 10 10 2 0 7 -4 10 -10z"/>
<path d="M1841 1645 c1 -27 3 -42 6 -32 2 9 13 17 23 17 10 0 21 7 24 16 9 23
-11 53 -34 51 -17 -1 -20 -8 -19 -52z m39 14 c0 -20 -15 -26 -25 -9 -9 15 3
43 15 35 5 -3 10 -15 10 -26z"/>
<path d="M1914 1686 c-11 -29 1 -51 26 -51 19 0 26 6 28 24 5 35 -42 58 -54
27z m40 -13 c9 -22 -10 -41 -25 -26 -13 13 -5 43 10 43 5 0 12 -8 15 -17z"/>
<path d="M1984 1689 c-4 -7 4 -20 17 -31 l24 -20 -22 5 c-13 3 -23 1 -23 -4 0
-5 11 -9 25 -9 28 0 35 27 10 36 -8 4 -15 10 -15 15 0 4 7 6 15 3 8 -4 15 -1
15 5 0 14 -37 14 -46 0z"/>
<path d="M2053 1665 c0 -22 2 -30 4 -17 2 12 2 30 0 40 -3 9 -5 -1 -4 -23z"/>
<path d="M2114 1675 c-8 -31 6 -48 32 -43 29 5 26 62 -3 66 -17 3 -24 -3 -29
-23z m43 -1 c8 -22 -15 -44 -26 -25 -10 16 -4 41 10 41 5 0 12 -7 16 -16z"/>
<path d="M2180 1665 c0 -19 5 -35 10 -35 6 0 10 10 10 23 0 13 5 28 12 35 9 9
7 12 -10 12 -18 0 -22 -6 -22 -35z"/>
<path d="M2233 1665 c0 -22 2 -30 4 -17 2 12 2 30 0 40 -3 9 -5 -1 -4 -23z"/>
<path d="M2262 1684 c-15 -26 -3 -54 23 -54 14 0 25 7 28 19 6 23 -9 51 -28
51 -8 0 -18 -7 -23 -16z m38 -25 c0 -10 -7 -19 -15 -19 -15 0 -21 31 -9 43 11
10 24 -3 24 -24z"/>
<path d="M2337 1693 c-12 -12 -7 -33 7 -33 8 0 18 -5 22 -12 5 -8 0 -9 -14 -6
-12 4 -22 2 -22 -3 0 -5 11 -9 25 -9 30 0 35 29 5 37 -11 3 -17 9 -15 14 3 4
13 5 22 2 11 -4 14 -3 9 5 -8 13 -29 16 -39 5z"/>
<path d="M2086 1488 c-24 -13 -20 -26 15 -44 23 -12 28 -19 20 -27 -9 -9 -17
-8 -32 2 -18 10 -20 10 -17 -1 3 -7 18 -13 34 -13 39 0 45 30 10 46 -33 16
-34 33 -1 25 14 -4 25 -2 25 3 0 13 -35 20 -54 9z"/>
<path d="M2164 1456 c-10 -26 1 -51 24 -54 12 -2 22 2 22 8 0 7 -7 10 -15 7
-8 -4 -17 -2 -20 3 -4 6 2 10 13 10 24 0 32 8 25 26 -7 18 -42 18 -49 0z m33
-2 c-3 -3 -12 -4 -19 -1 -8 3 -5 6 6 6 11 1 17 -2 13 -5z"/>
<path d="M2231 1433 l1 -38 9 33 c12 40 24 41 38 2 11 -34 26 -39 34 -12 2 9
8 25 12 35 4 9 3 17 -3 17 -5 0 -13 -12 -17 -27 l-8 -28 -6 25 c-5 18 -15 26
-34 28 -25 3 -27 1 -26 -35z"/>
<path d="M2343 1435 c0 -22 2 -30 4 -17 2 12 2 30 0 40 -3 9 -5 -1 -4 -23z"/>
<path d="M2370 1440 c0 -34 24 -50 43 -30 9 9 8 11 -8 8 -15 -2 -21 3 -23 20
-3 21 -1 23 18 17 15 -5 20 -4 16 4 -4 6 -16 11 -27 11 -15 0 -19 -7 -19 -30z"/>
<path d="M2430 1435 c0 -19 5 -35 10 -35 6 0 10 16 10 35 0 19 -4 35 -10 35
-5 0 -10 -16 -10 -35z"/>
<path d="M2467 1464 c-13 -13 -7 -55 8 -60 21 -9 47 15 43 40 -3 21 -37 34
-51 20z m40 -20 c1 -5 -2 -16 -7 -24 -12 -20 -35 2 -26 25 6 17 27 16 33 -1z"/>
<path d="M2537 1463 c-12 -12 -7 -22 13 -28 11 -3 20 -11 20 -16 0 -6 -9 -7
-21 -4 -15 5 -19 4 -15 -4 10 -16 43 -14 49 3 3 8 -4 22 -16 31 -16 12 -17 15
-4 11 9 -3 17 -1 17 4 0 11 -33 14 -43 3z"/>
<path d="M2433 953 c-4 -9 -15 -25 -25 -35 -10 -10 -18 -22 -18 -27 0 -14 30
-41 45 -41 15 0 45 27 45 40 0 20 -13 40 -26 40 -8 0 -14 5 -14 10 0 6 5 10
10 10 6 0 10 5 10 10 0 16 -20 11 -27 -7z m17 -58 c0 -16 -6 -25 -15 -25 -15
0 -21 31 -8 43 13 14 23 6 23 -18z"/>
<path d="M1836 917 c-9 -23 -16 -48 -16 -55 0 -17 17 -15 24 3 3 8 15 15 26
15 11 0 20 -7 20 -15 0 -8 7 -15 16 -15 9 0 14 6 11 13 -32 79 -41 97 -52 97
-7 0 -20 -19 -29 -43z m38 -2 c3 -8 1 -15 -4 -15 -6 0 -10 7 -10 15 0 8 2 15
4 15 2 0 6 -7 10 -15z"/>
<path d="M2020 904 c0 -73 24 -70 28 4 2 42 0 52 -12 52 -13 0 -16 -12 -16
-56z"/>
<path d="M1935 932 c-10 -10 -5 -112 5 -112 6 0 10 9 10 21 0 16 4 19 19 14
14 -4 23 0 31 15 11 20 6 59 -8 61 -40 5 -53 5 -57 1z m45 -37 c0 -26 -14 -33
-25 -15 -9 14 1 40 15 40 5 0 10 -11 10 -25z"/>
<path d="M2069 935 c-8 -8 3 -85 12 -85 12 0 12 77 0 84 -4 3 -10 4 -12 1z"/>
<path d="M2115 923 c-19 -19 -19 -38 1 -57 18 -18 17 -18 38 -10 23 9 20 26
-4 19 -16 -5 -20 -2 -20 18 0 20 4 24 20 20 11 -3 20 -1 20 5 0 17 -40 21 -55
5z"/>
<path d="M2203 933 c-21 -8 -15 -26 7 -20 11 3 20 1 20 -4 0 -5 -6 -9 -14 -9
-7 0 -19 -6 -25 -14 -15 -18 1 -30 47 -33 31 -2 40 6 25 21 -4 3 -8 16 -10 28
-5 31 -24 42 -50 31z m27 -53 c0 -5 -4 -10 -10 -10 -5 0 -10 5 -10 10 0 6 5
10 10 10 6 0 10 -4 10 -10z"/>
<path d="M2286 924 c-20 -20 -20 -38 0 -58 18 -18 17 -18 38 -10 24 9 19 24
-6 21 -17 -1 -23 3 -23 18 0 15 6 19 23 17 27 -4 29 4 3 18 -15 7 -23 6 -35
-6z"/>
<path d="M2360 896 c0 -25 5 -46 10 -46 6 0 10 18 10 39 0 22 -4 43 -10 46 -6
4 -10 -12 -10 -39z"/>
<path d="M2495 932 c-9 -10 -5 -82 5 -82 6 0 10 9 10 19 0 28 11 52 21 45 5
-3 9 -19 9 -35 0 -20 4 -29 13 -27 15 5 21 48 9 66 -9 14 -57 24 -67 14z"/>
<path d="M987 3144 c-14 -14 -6 -31 19 -43 15 -6 29 -9 32 -7 3 3 -3 9 -12 12
-10 4 -21 15 -25 26 -4 10 -10 16 -14 12z"/>
<path d="M957 3093 c-27 -26 20 -76 49 -52 8 6 14 19 14 28 -1 14 -2 14 -14
-1 -18 -24 -29 -23 -17 1 14 25 -12 45 -32 24z m23 -17 c0 -3 -4 -8 -10 -11
-5 -3 -10 -1 -10 4 0 6 5 11 10 11 6 0 10 -2 10 -4z"/>
<path d="M3443 3039 c-18 -12 -33 -23 -33 -26 0 -3 10 -23 22 -44 18 -32 24
-37 40 -28 11 6 27 8 36 4 13 -5 11 -10 -13 -25 -31 -21 -18 -28 16 -10 25 14
25 -2 -1 -18 -11 -7 -20 -17 -20 -24 0 -7 6 -6 18 4 9 8 25 18 35 21 20 7 23
27 4 27 -6 0 -18 13 -25 30 -13 29 -14 29 -38 13 -14 -8 -26 -14 -27 -12 -28
39 -35 59 -26 65 7 4 21 -4 31 -17 19 -23 19 -17 2 26 -9 22 14 18 28 -5 20
-32 31 -23 11 10 -9 17 -20 30 -23 30 -3 0 -20 -10 -37 -21z"/>
<path d="M910 3040 c0 -10 52 -40 70 -40 5 0 10 5 10 11 0 5 -4 8 -10 4 -5 -3
-18 2 -28 12 -22 21 -42 27 -42 13z"/>
<path d="M897 2987 c-14 -22 -14 -25 11 -41 l27 -17 -28 6 c-28 6 -57 -8 -57
-26 0 -17 20 -9 21 9 1 9 4 4 8 -12 7 -35 28 -45 38 -19 10 27 26 40 42 35 10
-3 11 0 5 9 -5 8 -7 24 -6 36 2 13 -4 26 -17 32 -26 15 -26 14 -44 -12z m48
-7 c11 -18 -5 -31 -26 -20 -11 6 -17 15 -14 21 8 12 32 12 40 -1z m-35 -80 c0
-5 -4 -10 -10 -10 -5 0 -10 5 -10 10 0 6 5 10 10 10 6 0 10 -4 10 -10z"/>
<path d="M810 2890 c0 -5 5 -10 10 -10 6 0 8 -10 4 -24 -4 -18 -1 -27 15 -36
12 -6 27 -8 34 -3 8 5 4 9 -12 13 -14 3 -26 11 -29 18 -5 15 34 16 43 2 4 -6
11 -8 17 -4 5 3 -8 17 -29 30 -42 26 -53 29 -53 14z"/>
<path d="M3527 2864 c-16 -9 -27 -18 -24 -21 6 -5 67 24 67 32 0 8 -14 5 -43
-11z"/>
<path d="M3550 2843 c-14 -9 -27 -18 -29 -19 -1 -1 0 -8 4 -14 4 -6 13 -2 25
12 24 31 37 16 16 -18 -12 -18 -24 -24 -37 -21 -10 3 -19 1 -19 -4 0 -13 98
-11 106 2 5 9 -1 10 -20 5 -28 -7 -34 2 -14 22 15 15 18 52 4 52 -7 0 -23 -8
-36 -17z"/>
<path d="M760 2803 c1 -14 70 -88 70 -76 0 6 -4 15 -10 18 -14 8 12 46 27 40
7 -2 13 -1 13 4 0 9 -48 21 -81 21 -11 0 -19 -3 -19 -7z m54 -25 c-3 -5 -12
-4 -20 3 -19 16 -18 18 6 12 11 -3 17 -9 14 -15z"/>
<path d="M3605 2758 c-23 -12 -34 -23 -27 -26 8 -2 19 1 25 7 22 22 30 11 9
-12 -30 -32 -28 -40 11 -32 l32 8 -25 -21 c-32 -27 -21 -28 24 -1 49 29 46 42
-6 34 l-43 -7 24 25 c34 37 22 49 -24 25z"/>
<path d="M727 2732 c-23 -26 -21 -49 6 -67 22 -14 28 -14 60 0 35 14 55 41 22
29 -10 -4 -15 0 -15 15 0 19 -26 41 -48 41 -5 0 -16 -8 -25 -18z m58 -32 c0
-18 -6 -26 -23 -28 -24 -4 -38 18 -28 44 3 9 15 14 28 12 17 -2 23 -10 23 -28z"/>
<path d="M680 2664 c0 -3 10 -19 21 -36 l21 -29 -37 7 c-30 5 -37 4 -33 -7 3
-8 20 -14 44 -14 54 -1 59 4 33 31 -12 13 -17 24 -11 24 6 0 14 -4 17 -10 3
-5 14 -10 23 -10 10 0 0 11 -23 25 -40 25 -55 30 -55 19z"/>
<path d="M3678 2659 c21 -22 13 -30 -13 -13 -23 15 -25 15 -32 -2 -4 -10 -2
-19 5 -22 7 -2 12 -9 12 -15 0 -7 4 -18 9 -25 7 -12 12 -12 29 -1 17 10 24 11
33 2 9 -9 6 -15 -14 -24 -15 -7 -27 -16 -27 -21 0 -12 8 -10 35 8 29 19 31 30
10 50 -11 11 -19 12 -34 4 -31 -16 -38 -11 -13 10 25 21 26 51 2 58 -12 4 -13
2 -2 -9z m-13 -29 c3 -5 2 -10 -4 -10 -5 0 -13 5 -16 10 -3 6 -2 10 4 10 5 0
13 -4 16 -10z"/>
<path d="M694 2565 c11 -8 25 -15 30 -15 6 0 2 7 -8 15 -11 8 -25 15 -30 15
-6 0 -2 -7 8 -15z"/>
<path d="M634 2546 c-1 -16 7 -28 27 -40 16 -9 29 -13 29 -7 0 6 -12 17 -27
25 -16 8 -22 15 -15 16 7 0 23 -5 34 -11 14 -8 23 -8 31 0 8 8 5 11 -10 11
-11 0 -26 7 -33 15 -18 22 -35 18 -36 -9z"/>
<path d="M3740 2540 c0 -6 -9 -10 -20 -10 -23 0 -25 -17 -5 -44 13 -17 17 -17
32 -5 26 20 32 30 26 45 -6 16 -33 27 -33 14z m20 -20 c0 -5 -2 -10 -4 -10 -3
0 -8 5 -11 10 -3 6 -1 10 4 10 6 0 11 -4 11 -10z m-25 -10 c3 -5 1 -10 -4 -10
-6 0 -11 5 -11 10 0 6 2 10 4 10 3 0 8 -4 11 -10z"/>
<path d="M610 2484 c0 -13 -3 -14 -13 -5 -8 6 -17 8 -20 4 -4 -3 11 -17 34
-31 44 -26 62 -19 57 23 -4 26 -58 35 -58 9z m45 -4 c3 -5 4 -14 0 -20 -8 -13
-35 -1 -35 16 0 16 26 19 35 4z"/>
<path d="M3750 2465 c-10 -12 -10 -18 0 -30 10 -12 10 -15 -3 -15 -9 0 -18 8
-20 18 -4 13 -5 11 -6 -5 -1 -17 5 -23 19 -23 28 0 89 32 72 38 -7 2 -19 -1
-27 -8 -8 -6 -19 -9 -25 -5 -18 11 10 36 33 29 13 -4 17 -2 13 5 -10 16 -41
14 -56 -4z"/>
<path d="M575 2430 c-4 -6 -1 -11 6 -9 28 3 39 -1 39 -16 0 -19 -19 -19 -44 0
-11 8 -24 15 -29 15 -15 0 4 -20 34 -35 27 -14 31 -14 46 1 12 12 14 20 6 33
-12 19 -48 26 -58 11z"/>
<path d="M3792 2408 c-7 -7 -12 -20 -12 -29 0 -20 18 -35 28 -24 4 4 1 10 -5
12 -7 3 -13 9 -13 15 0 6 7 7 16 4 12 -5 15 -2 10 9 -3 10 -2 13 5 10 5 -4 7
-16 3 -28 -6 -21 -5 -21 12 -5 14 14 15 20 4 32 -15 19 -32 20 -48 4z"/>
<path d="M534 2365 c-3 -8 -4 -20 -1 -27 4 -8 6 -6 6 5 1 9 5 17 11 17 5 0 9
-10 7 -22 -3 -31 25 -34 39 -4 10 21 8 25 -13 35 -32 15 -43 14 -49 -4z m43
-37 c-3 -8 -6 -5 -6 6 -1 11 2 17 5 13 3 -3 4 -12 1 -19z"/>
<path d="M3833 2348 c-13 -6 -23 -15 -23 -20 0 -5 9 -4 21 2 11 7 27 9 36 6 9
-4 13 -1 11 6 -6 17 -19 18 -45 6z"/>
<path d="M470 2295 c-7 -14 -11 -26 -9 -28 44 -32 107 -54 66 -23 -19 15 -9
30 28 39 19 4 19 5 -1 6 -12 0 -24 8 -28 16 -9 23 -41 18 -56 -10z m43 9 c3
-4 2 -16 -4 -26 -13 -24 -33 -10 -23 15 6 18 16 21 27 11z"/>
<path d="M4313 1835 c-18 -30 -30 -55 -28 -55 8 0 66 93 63 102 -2 5 -18 -16
-35 -47z"/>
<path d="M4256 1738 l-19 -33 23 21 c12 12 21 27 19 33 -3 7 -13 -3 -23 -21z"/>
<path d="M4222 1679 c-7 -11 -11 -23 -9 -25 7 -7 29 24 25 36 -2 6 -9 1 -16
-11z"/>
<path d="M4182 1610 c-18 -29 -15 -38 4 -12 9 13 14 25 12 27 -2 2 -9 -5 -16
-15z"/>
<path d="M4141 1539 c-7 -12 -10 -23 -8 -26 3 -3 11 5 17 17 15 28 8 35 -9 9z"/>
<path d="M4095 1461 c-8 -17 -12 -31 -7 -31 10 0 35 50 28 57 -2 3 -12 -9 -21
-26z"/>
<path d="M4054 1388 c-14 -28 -15 -31 -2 -20 14 11 31 52 22 52 -2 0 -11 -15
-20 -32z"/>
<path d="M643 1363 c-38 -19 -43 -34 -10 -30 15 1 21 -3 18 -13 -13 -55 -13
-57 1 -35 7 12 21 19 31 17 23 -5 32 23 19 54 -13 28 -16 28 -59 7z m47 -7 c0
-2 3 -11 6 -20 4 -11 1 -16 -10 -16 -9 0 -16 2 -16 4 0 2 -3 11 -6 20 -4 11
-1 16 10 16 9 0 16 -2 16 -4z"/>
<path d="M4027 1343 c-2 -4 -17 -30 -33 -58 -18 -32 -22 -45 -11 -36 9 7 17
18 17 23 0 5 10 22 22 38 12 16 19 32 16 36 -3 3 -8 2 -11 -3z"/>
<path d="M3688 1308 c-5 -11 1 -22 17 -32 28 -18 35 -20 35 -7 0 5 -9 12 -19
16 -11 3 -21 14 -23 23 -3 16 -4 16 -10 0z"/>
<path d="M676 1277 c-21 -15 -18 -48 4 -55 13 -5 13 -3 1 12 -8 9 -11 19 -7
23 3 4 13 -2 20 -13 12 -15 17 -17 28 -6 9 9 10 17 2 29 -14 23 -27 26 -48 10z
m39 -17 c3 -5 1 -10 -4 -10 -6 0 -11 5 -11 10 0 6 2 10 4 10 3 0 8 -4 11 -10z"/>
<path d="M3663 1263 c-21 -8 -15 -43 10 -52 25 -10 48 3 46 28 -1 13 -2 13 -6
-1 -2 -10 -11 -18 -19 -18 -11 0 -12 4 -4 19 5 11 10 22 10 25 0 7 -20 7 -37
-1z m9 -25 c-7 -7 -12 -8 -12 -2 0 14 12 26 19 19 2 -3 -1 -11 -7 -17z"/>
<path d="M727 1223 c-4 -3 -7 -17 -7 -30 0 -14 -4 -21 -10 -18 -6 4 -8 11 -5
16 4 5 1 9 -4 9 -16 0 -13 -15 4 -30 18 -15 35 -5 36 23 1 17 2 18 6 4 2 -9 9
-15 14 -12 5 4 5 14 -1 26 -11 20 -22 24 -33 12z"/>
<path d="M3616 1207 c8 -21 64 -41 77 -28 8 8 5 11 -10 11 -12 0 -28 6 -35 13
-18 17 -38 20 -32 4z"/>
<path d="M3942 1195 c-17 -37 -14 -45 4 -12 9 16 14 31 11 33 -2 2 -9 -7 -15
-21z"/>
<path d="M746 1156 c-18 -15 -24 -26 -17 -30 6 -4 11 -3 11 3 0 6 11 13 24 17
14 3 27 12 30 20 8 21 -15 16 -48 -10z"/>
<path d="M3614 1172 c-6 -4 -13 -15 -17 -24 -5 -14 3 -23 34 -39 23 -11 43
-18 46 -15 3 3 -2 8 -11 12 -12 5 -14 10 -5 20 6 7 8 18 4 24 -10 16 -40 29
-51 22z m34 -30 c3 -9 -2 -13 -14 -10 -9 1 -19 9 -22 16 -3 9 2 13 14 10 9 -1
19 -9 22 -16z"/>
<path d="M3902 1125 c-17 -37 -14 -45 4 -12 9 16 14 31 11 33 -2 2 -9 -7 -15
-21z"/>
<path d="M766 1124 c-27 -27 -14 -74 21 -74 8 0 5 8 -9 22 l-21 21 22 19 c26
20 38 16 51 -16 9 -20 9 -20 9 0 2 41 -43 58 -73 28z"/>
<path d="M3567 1103 c-4 -3 -7 -13 -7 -22 0 -11 3 -11 16 5 13 16 15 16 10 2
-3 -10 -3 -25 0 -33 7 -17 34 -21 34 -5 0 6 -4 10 -10 10 -5 0 -10 6 -10 14 0
9 7 12 20 9 11 -3 20 -1 20 5 0 16 -60 29 -73 15z"/>
<path d="M3858 1049 c-9 -16 -14 -29 -9 -29 8 0 34 50 29 56 -2 1 -11 -11 -20
-27z"/>
<path d="M815 1048 c-22 -12 -35 -23 -29 -25 11 -4 84 34 84 43 0 8 -16 3 -55
-18z"/>
<path d="M3520 1060 c0 -5 5 -10 11 -10 8 0 7 -5 -1 -15 -10 -13 -10 -19 5
-35 23 -25 41 -25 55 -1 14 28 14 28 -30 51 -22 11 -40 16 -40 10z m58 -48 c3
-9 -2 -13 -14 -10 -9 1 -19 9 -22 16 -3 9 2 13 14 10 9 -1 19 -9 22 -16z"/>
<path d="M870 1039 c0 -5 5 -7 10 -4 6 3 10 8 10 11 0 2 -4 4 -10 4 -5 0 -10
-5 -10 -11z"/>
<path d="M828 1022 c-38 -23 -36 -36 2 -17 17 9 30 20 30 25 0 12 2 12 -32 -8z"/>
<path d="M3785 923 c-58 -102 -61 -108 -47 -99 5 3 22 29 37 58 15 29 33 60
40 68 12 14 30 60 23 60 -2 0 -25 -39 -53 -87z"/>
<path d="M832 988 c-16 -16 -15 -33 3 -48 9 -8 15 -9 15 -2 0 6 -5 14 -10 17
-6 4 -8 11 -4 16 3 6 12 2 19 -8 11 -14 16 -15 26 -6 6 6 9 19 6 27 -7 19 -38
21 -55 4z m43 -8 c3 -5 1 -10 -4 -10 -6 0 -11 5 -11 10 0 6 2 10 4 10 3 0 8
-4 11 -10z"/>
<path d="M3470 973 c0 -12 51 -73 62 -73 7 0 6 5 -2 15 -15 18 2 44 29 46 23
1 -29 17 -61 18 -16 1 -28 -2 -28 -6z m50 -25 c0 -13 -23 -5 -28 10 -2 7 2 10
12 6 9 -3 16 -11 16 -16z"/>
<path d="M877 934 c-15 -8 -27 -19 -27 -25 0 -5 14 -3 30 6 25 13 30 13 30 1
0 -7 -10 -21 -22 -29 -13 -9 -18 -16 -12 -16 7 -1 22 7 35 17 20 17 21 21 8
39 -13 19 -17 20 -42 7z"/>
<path d="M3445 920 c8 -13 66 -43 71 -37 5 5 -58 47 -70 47 -4 0 -4 -5 -1 -10z"/>
<path d="M3420 900 c0 -5 5 -10 11 -10 5 0 7 5 4 10 -3 6 -8 10 -11 10 -2 0
-4 -4 -4 -10z"/>
<path d="M913 871 c-13 -11 -23 -25 -23 -32 0 -7 11 -2 26 12 14 13 29 23 32
21 4 -2 8 1 10 7 6 17 -21 12 -45 -8z"/>
<path d="M3470 870 l25 -20 -35 2 c-27 3 -35 -1 -38 -17 l-4 -20 16 20 c15 19
15 19 13 -9 -2 -33 19 -47 30 -19 4 10 13 24 20 31 19 19 16 27 -12 40 -38 17
-43 14 -15 -8z m0 -50 c0 -5 -4 -10 -10 -10 -5 0 -10 5 -10 10 0 6 5 10 10 10
6 0 10 -4 10 -10z"/>
<path d="M3376 798 c4 -7 16 -23 26 -35 l20 -21 -41 5 c-51 7 -53 -8 -5 -31
44 -20 58 -14 17 8 l-28 15 38 -6 c43 -7 46 1 15 36 l-23 25 27 -17 c30 -19
38 -21 38 -9 0 9 -64 42 -81 42 -6 0 -7 -6 -3 -12z"/>
<path d="M3696 770 c-9 -17 -13 -30 -8 -30 10 0 37 48 31 55 -3 2 -13 -9 -23
-25z"/>
<path d="M3656 700 c-9 -17 -13 -30 -8 -30 9 0 35 50 29 56 -2 2 -11 -10 -21
-26z"/>
<path d="M3621 639 c-7 -12 -10 -23 -8 -26 3 -3 11 5 17 17 15 28 8 35 -9 9z"/>
<path d="M3575 561 c-8 -17 -12 -31 -7 -31 10 0 35 50 28 57 -2 3 -12 -9 -21
-26z"/>
<path d="M3514 453 c-20 -37 -44 -79 -53 -93 -9 -13 -11 -21 -4 -17 15 9 106
167 100 173 -3 3 -22 -26 -43 -63z"/>
<path d="M1670 275 c0 -30 5 -55 10 -55 6 0 10 25 10 55 0 30 -4 55 -10 55 -5
0 -10 -25 -10 -55z"/>
<path d="M1808 318 c-7 -21 3 -98 13 -98 5 0 9 16 9 35 0 19 5 35 11 35 8 0 8
4 0 14 -9 11 -9 15 1 19 7 3 3 6 -8 6 -12 1 -24 -5 -26 -11z"/>
<path d="M2167 313 c-8 -13 7 -86 18 -90 6 -2 10 16 10 44 -1 42 -16 67 -28
46z"/>
<path d="M2447 308 c-4 -15 8 -76 17 -86 4 -3 11 -1 17 5 8 8 8 13 0 17 -14 9
-14 46 0 46 8 0 8 5 -1 15 -15 18 -27 19 -33 3z"/>
<path d="M3422 296 c-17 -37 -15 -45 4 -18 8 12 14 27 12 33 -2 6 -9 -1 -16
-15z"/>
<path d="M1713 294 c-7 -19 1 -64 12 -67 6 -1 11 13 13 31 4 41 20 42 24 0 4
-41 28 -51 28 -11 0 15 -5 35 -10 43 -11 18 -60 21 -67 4z"/>
<path d="M1860 262 c0 -26 4 -41 10 -37 6 3 10 17 10 30 0 13 5 27 10 30 16
10 11 21 -10 21 -17 0 -20 -7 -20 -44z"/>
<path d="M1919 293 c-13 -15 -11 -16 14 -9 34 8 35 -1 1 -14 -39 -15 -28 -45
18 -46 36 -1 37 0 31 30 -10 55 -38 72 -64 39z m36 -43 c-3 -5 -10 -10 -16
-10 -5 0 -9 5 -9 10 0 6 7 10 16 10 8 0 12 -4 9 -10z"/>
<path d="M2005 294 c-9 -9 -14 -23 -11 -31 3 -8 6 -18 6 -23 0 -12 28 -20 45
-14 23 9 18 26 -5 19 -11 -4 -20 -2 -20 4 0 6 11 11 25 11 29 0 32 12 9 34
-20 20 -29 20 -49 0z m35 -14 c0 -5 -4 -10 -10 -10 -5 0 -10 5 -10 10 0 6 5
10 10 10 6 0 10 -4 10 -10z"/>
<path d="M2093 303 c-22 -8 -14 -33 12 -43 14 -5 25 -12 25 -16 0 -3 -11 -3
-25 0 -30 8 -34 -10 -5 -19 21 -7 50 9 50 26 0 5 -11 14 -25 19 -30 11 -33 25
-4 17 13 -3 19 -1 16 6 -4 13 -26 18 -44 10z"/>
<path d="M2213 294 c-8 -21 1 -67 15 -72 8 -2 12 7 12 27 0 16 5 33 10 36 17
10 11 21 -11 21 -12 0 -23 -6 -26 -12z"/>
<path d="M2277 303 c-12 -11 -8 -60 6 -71 6 -5 23 -9 37 -7 20 1 26 8 28 35 5
47 -14 60 -22 15 -8 -41 -31 -43 -31 -2 -1 29 -8 41 -18 30z"/>
<path d="M2375 293 c-19 -19 -19 -38 1 -57 18 -18 17 -18 38 -10 23 9 20 26
-4 19 -17 -5 -20 -2 -20 20 0 22 3 25 20 20 11 -3 20 -2 20 3 0 17 -40 21 -55
5z"/>
<path d="M2500 270 c0 -22 3 -40 8 -41 63 -7 62 -7 62 38 0 50 -17 58 -22 11
-2 -18 -7 -33 -13 -33 -5 0 -11 15 -13 33 -5 46 -22 40 -22 -8z"/>
<path d="M2595 301 c-10 -9 -5 -81 5 -81 6 0 10 11 10 24 0 13 7 29 15 36 8 7
15 15 15 19 0 7 -38 9 -45 2z"/>
<path d="M2663 303 c-21 -8 -14 -25 7 -18 11 4 20 2 20 -4 0 -6 -9 -11 -19
-11 -22 0 -35 -26 -18 -37 7 -4 24 -8 39 -8 26 0 28 2 22 35 -8 44 -22 55 -51
43z m27 -53 c0 -5 -4 -10 -10 -10 -5 0 -10 5 -10 10 0 6 5 10 10 10 6 0 10 -4
10 -10z"/>
<path d="M3382 225 c-17 -37 -14 -45 4 -12 9 16 14 31 11 33 -2 2 -9 -7 -15
-21z"/>
<path d="M3338 149 c-9 -16 -14 -29 -9 -29 8 0 34 50 29 56 -2 1 -11 -11 -20
-27z"/>
<path d="M3287 60 c-16 -28 -26 -50 -24 -50 9 0 59 80 56 89 -2 6 -17 -12 -32
-39z"/>
<path d="M1138 3 c12 -2 30 -2 40 0 9 3 -1 5 -23 4 -22 0 -30 -2 -17 -4z"/>
<path d="M1747 3 c277 -2 729 -2 1005 0 277 1 51 2 -502 2 -553 0 -779 -1
-503 -2z"/>
</g>
</svg>
