<svg xmlns="http://www.w3.org/2000/svg" width="700" height="700" xmlns:v="https://vecta.io/nano"><g fill="#fdfdfd"><path d="M0 0h700v700H0V0z"/><path d="M0 0h700v700H0V0zm324 16a111.94 111.94 0 0 1-4 1v2l-3.035.246c-4.394.628-7.661 2.524-11.402 4.816l-1.928 1.143L299 28v2l-2 .563c-4.269 2.046-7.742 5.009-11 8.438v2h-2v3l-3 1c-1.61 1.914-1.61 1.914-3.062 4.25l-1.535 2.328c-1.398 2.415-2.434 4.809-3.402 7.422l-3.648.23c-6.606.738-12.712 2.945-18.977 5.082l-3.602 1.186C240.765 67.52 235.38 69.65 230 73c-2.437.75-2.437.75-4 1v2l-2.008.262c-3.94.972-7.272 2.699-10.867 4.551l-2.066 1.041C206.625 84.104 202.299 86.502 198 89v2l-6 2v2l-1.75.375c-2.273.631-4.175 1.514-6.25 2.625v2l-1.715.313c-10.872 3.271-21.079 14.639-29.426 22.055-2.487 2.184-5.044 4.281-7.609 6.371-1.485 1.203-1.485 1.203-1.25 3.262l-1.734.75c-2.616 1.443-4.413 3.132-6.516 5.25l-2.141 2.125c-1.826 1.716-1.826 1.716-1.609 3.875l-4 2v2h-2c-1.539 1.72-3.007 3.502-4.437 5.313-4.347 5.479-4.347 5.479-6.348 7.418-1.445 1.218-1.445 1.218-1.215 3.27h-2c-1.283 1.613-1.283 1.613-2.562 3.75-2.525 3.933-5.224 7.661-8.062 11.375-3.169 4.19-5.894 8.255-8.375 12.875l-4.828 7.766c-1.404 2.257-1.404 2.257-1.172 5.234h46c13.821 27.642 13.821 27.642 12 41l-2.591-5.182-2.203-4.403-4.745-9.528c-2.012-4.067-4.053-8.035-6.461-11.887l-1-2c-5.174-1.277-10.474-1.217-15.773-1.316l-2.799-.063-8.802-.183-5.988-.131L80 211c-1.825 2.963-3.485 5.881-4.867 9.074l-.988 2.258-1.02 2.355c-2.19 5.01-4.396 9.968-6.937 14.813-2.001 3.887-3.306 7.756-4.414 11.98C61 254 61 254 59.577 257.179c-1.61 3.725-2.652 7.527-3.585 11.469l-.518 2.115-1.599 6.611-1.621 6.676-.998 4.137c-1.144 4.701-1.144 4.701-2.256 5.813-.683 3.787-1.091 7.619-1.562 11.438l-.42 3.201c-.812 6.492-1.207 12.82-1.018 19.361h-2c-.923 9.09-1.197 18.117-1.187 27.25l-.002 2.101c.001 12.151.837 24.123 1.971 36.22 1.225 13.639 1.225 13.639-.868 17.359-1.228 1.427-2.567 2.756-3.914 4.07-.865 2.721-.865 2.721-1 5h-2c-11.589 17.549-13.533 42.278-9.617 62.502C29.692 493.024 33.181 501.958 39 511l1.111 1.777C44.579 519.864 49.232 525.988 56 531l1.584 1.191C64.109 537.077 70.505 541.713 78 545l3.277 1.5c3.548 1.515 7.05 2.345 10.848 3.063l1.949.381c4.335.829 8.672 1.399 13.051 1.931 3.757.577 5.558.899 8.688 3.125l2.188 3 4 5.063 1.938 2.535c2.15 2.504 4.482 4.358 7.063 6.402l1.938 3c1.877 3.128 1.877 3.128 4.875 4.875 3.499 2.332 5.696 4.898 8.383 8.086 2.642 2.985 5.527 5.756 8.805 8.039h2l1 3c1.655 1.313 1.655 1.313 3.688 2.438l2.191 1.309L166 604c3.07 1.965 5.903 3.918 8.676 6.285 3.602 3.021 7.443 5.601 11.387 8.152l2.24 1.45c10.222 6.968 10.222 6.968 21.697 10.112v2l3.043 1.285c3.799 1.628 7.535 3.381 11.27 5.152 5.818 2.736 11.663 5.307 17.688 7.563l3.125 1.188c3.627 1.025 7.127 1.425 10.875 1.813v2l3.219.77 4.281 1.043 2.109.502c3.553.872 6.954 1.855 10.359 3.197 4.264 1.651 8.549 2.62 13.031 3.488l2.585.507c22.347 4.223 44.709 5.715 67.415 5.493-.787-3.508-2.082-6.006-4-9.062-1.688-2.698-2.99-4.909-4-7.937h-2l-.625-2.937c-1.186-4.207-3.424-7.423-5.918-10.973C341 633 341 633 339.25 629.938L338 628h-2v-6h2l1.539-3.402c3.283-7.168 6.47-14.094 11.074-20.527 2.543-3.797 4.44-7.944 6.387-12.07l4 3 .313-1.937L362 585l3-1-2 3v3h-2l-1.215 2.465c-3.816 7.692-7.744 15.306-11.851 22.847l-1.114 2.071-.992 1.825c-.904 1.956-1.508 3.658-1.829 5.792 1.472 3.044 1.472 3.044 3.625 6.188l2.238 3.48L352 638l3.977 7.137c.867 1.579 1.784 3.131 2.711 4.676 1.213 2.022 2.29 4.064 3.313 6.188h2l.875 2.813c1.012 3.285 1.012 3.285 3.125 6.188 2.913.173 5.542.138 8.438-.062l2.67-.167C426.258 661.373 473.6 646.677 514 622l2.395-1.43 5.023-3.016 5.008-2.984 2.199-1.32 1.977-1.172L532 611v-2l2.375-.937c2.548-.991 2.548-.991 4.625-2.062v-2l2.25-.75c2.995-1.361 4.478-2.907 6.75-5.25l2.313-1.352c2.896-1.776 5.198-3.779 7.688-6.086 2.549-2.354 5.059-4.608 7.813-6.723L568 582v-2l3-1c2.708-2.375 2.708-2.375 5-5v-2h2c1.469-1.413 1.469-1.413 3-3.312l1.93-2.187c2.136-2.498 2.136-2.498 4.016-5.375 3.76-5.067 6.505-8.087 12.734-9.281 3.603-.508 7.218-.838 10.84-1.184 16.609-1.682 33.067-9.68 45.48-20.66 1.343-2.13 1.343-2.13 2-4h2c7.003-6.225 12.959-14.574 17-23v-4h2l1.5-4.75.844-2.672c.821-2.781.821-2.781.656-6.578h2c2.428-19.797 1.954-40.742-7-59l-.965-2.156c-1.566-3.371-3.22-6.219-5.66-9.031-2.235-2.647-3.144-4.647-4.375-7.812l-3-2c-.328-2.188-.328-2.188-.25-4.891l.082-3.002c.268-4.966.703-9.907 1.168-14.857 2.269-26.596.652-52.785-3.437-79.125l-.313-2.031c-1.323-8.492-3.006-16.797-5.25-25.094h-2l-2-12h-2l-.043-1.766c-.438-7.523-2.893-13.42-5.957-20.234l-1.75-4.562c-3.296-8.335-7.366-16.364-11.25-24.437-3.361.727-3.361.727-4.687 4.375-1.483 3.453-1.483 3.453-1.312 6.625h-2v-2h-2l-1-2-2 4h-2l3-11h2l1.563-4.25.879-2.391c.792-3.343.063-5.351-1.441-8.359h-2l-.312-2.187c-.755-3.09-1.843-5.23-3.687-7.812h-2l-.625-2.5c-1.181-3.007-2.154-4.718-4.078-7.207l-1.629-2.125L605 174l-3.008-4.043c-6.86-9.159-13.999-17.771-21.992-25.957l-2.147-2.209-6.978-7.103-2.265-2.305-2.118-2.121-1.895-1.907c-1.502-1.57-1.502-1.57-3.597-1.354l-1-3-5-3-5-5c-2.669-2.406-2.669-2.406-6-3v-2c-2.175-1.821-2.175-1.821-4.875-3.625l-2.742-1.914c-2.201-1.635-2.201-1.635-4.383-1.461v-2c-1.613-1.261-1.613-1.261-3.727-2.461l-2.379-1.43-2.52-1.484-4.852-2.898-2.353-1.401c-1.896-1.157-3.737-2.36-5.569-3.614-2.55-1.836-2.55-1.836-5.602-2.711l-1-2c-3.029-.658-3.029-.658-6-1v-2c-7.025-3.681-14.152-6.748-21.562-9.562-11.012-4.209-11.012-4.209-16.094-6.555-4.325-1.956-8.695-3.255-13.281-4.445l-4.723-1.266-2.262-.604c-3.408-.932-6.772-1.998-10.132-3.088-2.259-.64-2.259-.64-5.945-.48l-.32-1.75c-.78-2.581-1.894-4.135-3.555-6.25l-1.555-2-1.57-2-1.57-2.25L414 39h-2v-2l-1.687-.687C408 35 408 35 405.938 32.813c-9.548-9.96-24.562-16.056-37.934-18.383C366 14 366 14 365 13c-4.414-.245-8.833-.229-13.253-.24l-6.63-.072c-7.559-.056-14.065.359-21.117 3.313z"/></g><path d="M344.219 12.814h2.254l6.762-.039 4.313-.006 3.964-.012c3.345.233 5.477.86 8.489 2.243l3.563.813c12.27 2.981 26.021 9.697 35.004 18.77 1.398 1.53 1.398 1.53 3.434 2.418v2h2c1.396 1.55 2.719 3.166 4 4.813l2.125 2.707C424 51.646 424 51.646 424 55l3.063.23c6.144.772 12.012 2.676 17.919 4.47l6.042 1.797c5.924 1.768 11.615 3.57 17.062 6.526 4.847 2.471 10.12 4.118 15.225 5.976 5.223 1.939 9.94 4.081 14.689 7v2l2.938.375L504 84l1 2 5.555 2.734c3.737 1.934 7.22 4.232 10.746 6.523 2.434 1.571 4.901 3.067 7.387 4.555L532 102v2l2.063.688c3.636 1.625 6.966 3.641 9.938 6.313v2l1.625.75c4.755 2.503 8.65 5.397 12.375 9.25l3 2v2l1.685.704c2.924 1.637 4.968 3.672 7.35 6.03l1.441 1.424 4.586 4.591 1.572 1.575C585.391 149.11 592.583 157.066 599 166l3.25 4.25L605 174l1.879 2.563 1.934 2.688 1.77 2.453c1.335 2.162 1.98 3.815 2.418 6.297h2c4 6.625 4 6.625 4 10h2c2 3 2 3 1.691 4.922L622 205l-.535 2.141L620 213h-2l-.516 2.055c-1.465 5.625-3.197 10.947-5.434 16.309-1.912 4.798-3.464 9.723-5.051 14.637-9.251-.406-18.275-1.372-27.415-2.847-4.175-.668-8.321-1.253-12.534-1.617l-2.358-.215-4.401-.322c-1.983-.178-1.983-.178-5.292-.998-1.762-2.246-1.762-2.246-3-5-7.551-12.729-7.551-12.729-17-24l-2.937-3.375c-17.101-20.251-17.101-20.251-37.895-36.262L492 170v-2l-2.062-.75c-3.506-1.492-6.654-3.318-9.937-5.25v-2l-2.24-.33c-2.91-.706-4.507-1.639-6.912-3.385-4.929-3.413-10.051-6.174-15.41-8.848l-2.883-1.445c-7.968-3.896-15.981-6.77-24.554-8.993l-.266 2.094c-.914 3.616-2.517 6.241-4.484 9.406l-2.047 3.344c-2.177 3.119-4.433 5.559-7.203 8.156l-2.578 2.465c-19.559 18.1-42.485 25.443-68.864 24.667-20.67-1.065-38.395-9.9-53.246-23.995-2.317-2.253-2.317-2.253-5.312-4.137l-1-3-3-3c-1.268-1.828-2.495-3.685-3.687-5.562l-1.887-2.941C273 142 273 142 273 140c-13.062 4.78-25.532 10.247-37.414 17.52-2.475 1.417-4.914 2.492-7.586 3.48v2c-2.082 1.473-2.082 1.473-4.812 3.063l-2.707 1.598C218 169 218 169 215 170l-.812 1.938c-1.719 2.986-4.002 3.046-7.187 4.063l-1 3c-3.444 3-3.444 3-6 3l-.738 1.766c-1.482 2.624-3.138 4.059-5.449 5.984-5.364 4.639-9.998 9.529-13.937 15.438C178 208 178 208 175.805 210.141c-3.565 3.501-6.527 7.458-9.555 11.422l-1.785 2.287-1.699 2.217-1.538 1.998c-1.264 1.993-1.797 3.628-2.228 5.935h-2l-.812 2.813c-1.132 3.039-1.887 4.088-4.187 6.188-5.501-10.04-10.566-20.175-15.168-30.661l-1.082-2.464-.953-2.195c-.679-1.674-.679-1.674-1.797-2.68-1.443-.093-2.89-.117-4.336-.114h-2.791l-3.033.016-3.09.004-9.813.031-6.635.014L87 205c.964-5.375 3.184-8.895 6.375-13.25 1.877-2.576 3.41-5.171 4.875-8 2.651-4.938 6.121-9.03 9.762-13.27 1.704-2.126 2.906-3.997 3.988-6.48h2l.715-1.68c1.598-2.885 3.604-5.032 5.848-7.445 3.075-3.19 3.075-3.19 5.438-6.875h2l2-4h2l.75-1.734c1.443-2.616 3.132-4.413 5.25-6.516l2.125-2.141C142 132 142 132 144 132l.711-1.727c3.707-6.538 11.21-11.37 17.223-15.742 2.43-1.801 4.777-3.692 7.129-5.594C180.213 100 180.213 100 184 100v-2c2.905-2.042 4.401-3 8-3v-2l6-2v-2c8.19-5.675 18.077-11.331 28-13v-2l10-4 2.185-.901c6.292-2.571 12.652-4.786 19.127-6.849l2.916-.957 2.822-.902 2.521-.812c2.559-.61 4.807-.683 7.428-.579l.75-2.125c1.418-3.262 3.208-5.967 5.25-8.875l1.625-2.375L282 44h2v-3h2l.719-1.766c1.554-2.71 3.301-4.1 5.781-5.984l2.406-1.859C297 30 297 30 299 30v-2l6.563-3.937 1.846-1.131C311.668 20.43 315.071 19.4 320 19v-2l2.59-.621 3.348-.816 3.34-.809c5.116-1.417 9.309-1.92 14.941-1.939z" fill="#d45253"/><path d="M628 213h2c9.408 19.558 9.408 19.558 12.098 26.684.687 1.763 1.435 3.501 2.211 5.227 2.873 6.439 4.519 12.021 4.691 19.09h2l2 12h2c8.707 35.847 12.168 72.55 8.712 109.315-1.858 11.517-1.858 11.517 1.038 21.935L667 409l3 5.285c1.048 1.909 1.048 1.909 3 4.09 13.598 17.847 13.671 45.364 11 66.625h-2l-.375 3.063c-.606 3.817-1.497 7.253-2.625 10.938h-2l-.352 2.211c-.659 2.837-1.592 4.89-3.023 7.414l-1.273 2.289c-1.291 1.992-2.654 3.444-4.352 5.086l-1.375 2.375c-1.872 3.024-3.983 5.254-6.625 7.625h-2l-.656 1.723c-7.141 12.102-26.052 17.977-38.81 21.697-2.636.603-5.143.878-7.839 1.064-10.814.751-16.956 2.179-24.383 10.516-3.005 3.53-5.741 7.143-8.312 11h-2l-.75 1.75c-1.433 2.579-3.034 4.311-5.25 6.25h-2l-.664 1.719c-1.76 3.006-3.974 4.639-6.711 6.781-2.737 2.154-5.356 4.225-7.789 6.719C551 597 551 597 548 598l-2.437 2.5c-2.399 2.341-3.334 3.141-6.562 3.5v2c-4.385 3-4.385 3-7 3v2c-2.012 1.402-2.012 1.402-4.687 2.938l-2.637 1.527L522 617c-2.667 1.556-5.011 3.009-7.375 5-2.469 1.881-4.754 2.921-7.596 4.103-4.599 2.033-8.975 4.555-13.387 6.961-11.516 6.172-23.612 10.832-35.955 15.061l-1.903.656c-8.579 2.947-17.125 5.562-26.011 7.403-3.033.656-5.947 1.426-8.926 2.281-6.198 1.712-12.426 2.74-18.785 3.66l-3.536.521c-10.165 1.431-20.27 2.121-30.526 2.354-4-6.75-4-6.75-4-9l-3-1a195.97 195.97 0 0 1-3-7l-3-4a195.89 195.89 0 0 1-2.875-5.25c-2.227-4.181-4.607-8.127-7.34-11.996-1.059-2.366-.574-3.299.215-5.754.819-1.734 1.685-3.446 2.582-5.141l1.576-2.996 1.654-3.113 3.207-6.078 1.542-2.92L361 590h2l.438-1.875C364 586 364 586 365 584h2l1-4 11.75-1.5 3.367-.434 3.242-.41 2.983-.381C392 577 392 577 396 577v-2l1.69-.38c20.703-4.672 20.703-4.672 40.31-12.62 1.302-.429 2.615-.828 3.938-1.187 5.311-1.667 10.021-4.368 14.834-7.12 3.444-1.927 5.184-2.693 9.229-2.693v-2c2.23-1.621 2.23-1.621 5.188-3.437l2.918-1.809L477 542l2.738-1.723C482 539 482 539 484 539v-2c1.614-1.317 3.294-2.554 5-3.75l3.023-2.148L495 529l4.625-3.375 1.914-1.398c1.604-1.182 1.604-1.182 2.461-3.227l3-1 2.691-4.234c2.542-3.43 5.872-6.251 9.309-8.766h2l-.77-1.906-2.152-5.398c-.848-2.12-1.737-4.224-2.641-6.32-7.537-20.664-5.373-42.914 1.563-63.375h2l.25-2.5c.914-4.268 2.672-7.692 4.75-11.5h2l.816-1.777c3.272-6.144 8.927-11.09 13.746-16.035l2.691-2.77C546.371 392.673 549.687 390 554 390v-2c8.168-4.314 15.841-7.587 25-9 2.938-21.011 2.172-41.871 1-63h-2l-.332-3.219-1.039-8.75-.263-2.045c-.502-2.731-1.394-5.202-2.514-7.736-1.502-3.968-2.363-8.137-3.318-12.266-2.078-8.751-5.7-16.893-9.192-25.156C559 251.216 559 251.216 559 249c6.065-.105 11.801.216 17.797 1.094l2.414.336 7.539 1.07 7.582 1.07 4.691.668c3.687.519 7.252.891 10.977.762l.703-1.697 3.172-7.616 1.105-2.67 1.074-2.568.984-2.365C618 235 618 235 620 232l2-6 2.563-6.312 1.316-3.176C627 214 627 214 628 213z" fill="#6aab77"/><path d="M83.987 210.849l5.185.139 2.773.069 5.82.165 8.875.238 5.656.154 2.671.07c8.959.284 8.959.284 13.032 1.317 1.563 2.5 1.563 2.5 3 6l2.188 3.875c2.471 4.421 4.781 8.916 7.063 13.438l1.071 2.103c1.588 3.17 2.909 6.126 3.679 9.584h2c-.615 5.115-2.978 9.271-5.25 13.813-4.173 8.553-7.143 17.059-9.75 26.188l-1.562 4.563c-7.007 21.059-9.469 42.619-9.562 64.75l-.014 2.787c.014 5.71.412 11.236 1.139 16.901l3.148.516c8.037 1.373 15.445 2.944 22.852 6.484l2.617 1.227c17.034 8.239 34.591 22.751 41.445 40.898 1.127 2.977 2.154 5.2 3.938 7.875.414 2.48.414 2.48.625 5.188l.227 2.73L197 444h2c3.647 13.675 3.298 28.555-1 42l-1.437 5.688c-1.371 5.016-3.291 9.643-5.562 14.313h-2c-1.129 3.311-2.213 6.59-3 10l2.563 2c2.652 2.183 4.806 4.547 7 7.188 2.518 3.013 2.518 3.013 5.938 4.813 2.91 1.164 3.781 2.348 5.75 4.75 3.719 4.459 7.849 7.219 12.75 10.25l4.875 3.313c2.466 1.684 4.265 2.734 7.125 3.688v2l2.352.66c5.887 2.162 11.265 5.286 16.773 8.264 5.199 2.775 10.298 5.18 15.875 7.076l2.297.818c9.219 3.265 18.465 6.348 28.015 8.495l1.947.445c13.909 2.939 27.589 3.519 41.741 3.367l4.984-.027L358 583l-3.75 8.188-1.055 2.33c-2.012 4.341-4.199 7.737-7.195 11.482-1.552 2.877-2.903 5.836-4.25 8.813l-1.102 2.389L338 622h-2v6l1.809.672c2.884 1.748 3.725 3.594 5.254 6.578l1.543 2.98L346 641l1.051 1.988C349 646.711 349 646.711 349 649h2l.988 2.047 1.324 2.703 1.301 2.672c1.301 2.592 1.301 2.592 3.055 4.719C359 663 359 663 359 666c-28.788.631-62.701.029-89.594-11.547a38.48 38.48 0 0 0-8.844-2.641l-2.621-.48L256 651v-2l-3.625-.375C241.747 647.526 231.403 641.784 222 637l-5-2-7-3v-2l-2.812-.625c-12.361-3.556-26.681-12.85-35.77-21.961-1.923-1.918-4.064-3.054-6.418-4.414l-4.312-2.562-2.113-1.254L157 598v-2l-1.691-.73c-2.798-1.538-4.893-3.425-7.246-5.582l-2.664-2.437c-2.521-2.365-4.955-4.806-7.398-7.25l-2.562-1.937c-2.814-2.381-4.4-5.006-6.437-8.062l-2.312-1.812c-3.235-2.633-5.466-5.631-7.941-8.969-3.4-4.526-3.4-4.526-8.348-6.906l-3.023-.312c-20.687-2.716-36.186-8.519-52.375-22l-1.719-1.336c-4.827-3.871-8.071-8.232-11.406-13.414l-1.512-2.266c-12.951-19.747-17.756-43.064-13.074-66.326.799-3.583 1.717-7.124 2.711-10.658l.793-2.875c1.465-4.791 3.579-8.866 6.207-13.125h2l.75-2.687C41 414 41 414 43.055 411.625c2.249-3.034 2.433-4.222 2.32-7.937l-.102-3.5c-.231-4.027-.62-8.037-.998-12.052-1.026-10.988-1.474-21.857-1.463-32.885l-.002-2.039c.001-8.453.335-16.801 1.19-25.211h2l-.048-1.757c-.105-6.929.533-13.628 1.423-20.493l.383-3.18c.647-5.109 1.472-9.716 3.242-14.57.822-3.154 1.557-6.329 2.313-9.5 1.783-7.309 3.856-14.31 6.516-21.352 1.111-2.984 2.054-5.98 2.984-9.023 1.858-5.672 4.444-10.818 7.181-16.102 2.77-5.393 4.969-10.828 6.998-16.547 1.691-4.155 2.404-4.454 6.995-4.628z" fill="#5792f6"/><path d="M308 316c48.138 0 48.138 0 57.711 8.523 9.743 10.841 12.62 21.476 12.508 35.781-.279 4.716-1.271 8.426-3.219 12.695l-.773 1.969c-4.39 10.15-11.833 16.537-21.82 20.875C336.945 401.092 326.254 399 308 399v-83z" fill="#8d8d8d"/><path d="M393 316c47.007 0 47.007 0 60.09 10.711 8.011 8.028 9.274 18.626 9.348 29.477-.165 12.462-2.793 21.768-11.512 31.012C434.787 402.437 414.628 399 393 399v-83z" fill="#8e8e8e"/><path d="M329.875 326.75c9.918.015 18.342.881 25.98 7.75C357 336 357 336 357 339h2c4.826 11.957 5.734 22.273 1.129 34.469-3.036 6.806-7.752 9.844-14.5 12.445-7.814 2.485-15.495 2.638-23.629 2.086-1.743-1.743-1.128-4.144-1.129-6.514l-.01-3.569.006-3.886-.003-3.957.005-8.302-.004-10.664.001-10.14-.006-3.886.01-3.569.002-3.16c.275-5.096 4.961-3.589 9.002-3.603z" fill="#fbfbfb"/><path d="M407 328c21 0 21 0 29 2v2l1.688.625c5.231 3.11 8.789 8.535 10.313 14.375 1.834 11.577 1.062 20.93-5.363 30.871-4.739 6.164-12.261 8.654-19.637 10.129h-16v-60z" fill="#fcfcfc"/><path d="M235 316h61v11h-24v72h-14v-72h-23v-11z" fill="#8f8f8f"/><path d="M92 451l3.813-.062 2.145-.035C100 451 100 451 103 452l1 7h9l2 4 3 1v-5h10v-3h2v3l1.75-1c2.25-1 2.25-1 6.25-1v4h3v3h-3l.375 4.438.211 2.496L139 473l2 1-1 3-6-1c-1.203-2.405-1.101-3.95-1.062-6.625l.027-2.477L133 465l-4.375-.125-2.461-.07c-2.377-.018-2.377-.018-4.164 2.195-.167 2.584-.167 2.584 0 5l8 1v3c-2.765 1.382-5.046 1.095-8.125 1.063l-3.32-.027L116 477v1l-8.687.063-2.475.025-2.412.01-2.206.016C98 478 98 478 93 477v-13h-4v-5h2l-.062-2.875C91 453 91 453 92 451z" fill="#7ba5eb"/><path d="M544 465h5v4h5v2l1.5-1c3.609-1.444 6.613-1.123 10.5-1h3v3l1.938-2.5c3.735-3.049 5.458-2.892 10.074-2.48 2.225.21 2.225.21 3.988-2.02 2.625-.125 2.625-.125 5 0v4h3v4h-3v9h3v4h-9v-4h-2l-2 4-10.875.063-3.07.025c-17.619.056-17.619.056-20.813-2.489-1.685-2.169-1.547-3.576-1.429-6.286l.082-2.449L544 473h-2v-3h2v-5z" fill="#88af8e"/><path d="M55 454l7.875-.125 2.262-.051L71 454c2.36 2.36 2.491 3.779 3 7l2.266-.105 2.984-.082 2.953-.105c3.218.337 4.539 1.003 6.797 3.293.313 3.125.313 3.125 0 6-1 1-1 1-2.848 1.098L80 471v2l8-1v7c-7.75.125-7.75.125-10-1v2c-4.199 1.4-6.02.919-10-1-1.088-2.584-1.682-5.032-2.199-7.785L65 469c-2.011-.888-2.011-.888-4-1v8c-1.656.382-3.325.714-5 1-1-1-1-1-1.114-3.133l.016-2.777.01-2.998.025-3.154.014-3.166L55 454z" fill="#6d9ce2"/><path d="M357 584l3 4 2-4h3l-2 6h-2l-.625 2.813c-1.956 6.793-5.937 12.831-9.582 18.832l-1.121 1.877-2.22 3.62c-1.574 2.638-2.471 4.41-2.343 7.515.939 2.471 2.029 4.33 3.578 6.469 2.975 4.277 5.477 8.697 7.918 13.297.963 1.78 1.976 3.533 3.027 5.262 1.275 2.16 1.914 3.869 2.367 6.316h-3l.625 2.375L360 661l-2 2-3.5-5.312-1.969-2.988C351 652 351 652 351 649h-2l-1.562-3.25c-4.324-10.198-4.324-10.198-11.437-17.75v-6h2l1.125-3.812c2.665-7.994 7.12-15.069 11.641-22.129 2.33-3.886 4.27-7.979 6.234-12.059z" fill="#f0f9fa"/><path d="M375 100h4v4l2.813-.5c5.045-.737 10.102-.583 15.188-.5v3l2 1v6h-11v2l2-1a95.33 95.33 0 0 1 5.125-.062l2.758.027L400 114l-.187-3.312C400 107 400 107 401 105.063c3.266-1.735 6.344-1.242 10-1.062v3h-6v3l2.375.375C410 111 410 111 412 113c-.33 3.297-.623 4.623-3 7-2.215.16-2.215.16-4.937.063-4.992-.105-9.794.233-14.75.816C387 121 387 121 384 120c-1.728-.068-3.458-.085-5.187-.062l-2.73.027L374 120c-2.143-3.477-2.213-6.212-2.125-10.25l.055-3.266L372 104h3v-4z" fill="#cc696d"/><path d="M630 430h6v8h8c1.067 3.462 1.102 6.64 1.063 10.25l-.027 3.266L645 454h-4l-1-12-4 2c-.702 2.417-.702 2.417-.75 5.125l-.172 2.758L635 454l-5.875.125-3.305.07C623 454 623 454 621 452c-.195-2.383-.195-2.383-.125-5.125l.055-2.758L621 442h-4c.875-6.875.875-6.875 2-8l6.09.063c1.998.068 1.998.068 3.91-1.062l1-3z" fill="#82a888"/><path d="M566 469h3v3l1-1.5c3.176-2.382 6.102-1.692 10-1.5l1 4h-6c1.933 2.025 3.632 3.421 6 5-.375 2.938-.375 2.938-1 6-3.215 1.607-6.436 1.057-10 1l-1-5-1 2.5c-2 2.5-2 2.5-5.937 3-2.468-.186-4.226-.561-6.562-1.437-2.127-2.924-2.06-5.347-1.875-8.898C554 473 554 473 555.5 470.438c3.672-2.111 6.282-1.705 10.5-1.437z" fill="#83b590"/><path d="M92 451l3.813-.062 2.145-.035C100 451 100 451 103 452l1 7h9l1 4-2-1-4.125-.062L104 462v2h6v3l-3.437.938c-3.35.692-3.35.692-4.562 2.063v5l3.063.438L116 477v1l-8.687.063-2.475.025-2.412.01-2.206.016C98 478 98 478 93 477v-13h-4v-5h2l-.062-2.875C91 453 91 453 92 451z" fill="#6890ea"/><path d="M535 432h6l1.375 3.375c1.35 3.587 1.35 3.587 3.625 5.625v5h2l.313-2.187c.751-3.072 2.039-5.133 3.688-7.812.696-2.191.696-2.191 1-4h6v22h-4l-1-12-5 12-4-1-1-5h-2l-2-7-1 13h-4v-22z" fill="#e2f1e0"/><path d="M296 67h4l.621 2.152.816 2.785.809 2.777c.544 2.225.544 2.225 1.754 3.285l4-11 5 1 4 12 3-12 4-1c-1.702 17.702-1.702 17.702-6 22-1.984.004-1.984.004-4-1-1.266-2.723-1.266-2.723-2.25-6.062l-1.016-3.348L310 76l-.621 2.59-.816 3.348-.809 3.34C307 88 307 88 306 89c-1.666.041-3.334.043-5 0-5.403-15.559-5.403-15.559-5-22z" fill="#f7e7de"/><path d="M352.039 103.805l3.586.07 3.602.055L362 104l.125 8.25.051 2.355c.062 7.262.062 7.262-2.176 10.395-3.609 2.776-7.657 2.145-12 2v-4l9-1v-3l-3.375.563C350 120 350 120 348 119v-3h-2l.375-4.875.211-2.742c.651-3.748 1.71-4.338 5.453-4.578z" fill="#f6d9cf"/><path d="M305 95h5v9h2v-9h5v25l-8-2v2l-5-1c0-18.25 0-18.25 1-24z" fill="#c97172"/><path d="M604 469c11.342-.493 11.342-.493 14.375 1.781 2.269 3.098 1.913 5.481 1.625 9.219h-2v4c-2.739 1.37-4.971 1.126-8 1l-2-1v8h-4v-23z" fill="#dcf0dd"/><path d="M57 455c11 0 11 0 13.75 1.688C72 459 72 459 71.875 461.5c-.802 2.293-1.696 4.378-2.875 6.5l1.375 1.125C72.47 471.543 73.12 473.954 74 477c-2.25-.062-2.25-.062-5-1-1.182-1.737-2.079-3.533-3.02-5.41-.906-1.816-.906-1.816-3.23-2.527L61 468v8l-4 1v-22z" fill="#eaf3fd"/><path d="M135 208c2.76 2.76 3.926 6.088 5.438 9.625l.908 2.082c6.086 14.072 6.086 14.072 5.904 18.98l-.078 2.258c-.201 2.407-.568 4.715-1.172 7.055-2.103-2.658-3.693-5.214-5.086-8.301l-1.133-2.463-2.289-5.062c-1.831-3.972-3.686-7.623-6.281-11.154C129 218 129 218 129 216h3l1 2v-2h2v-8z" fill="#eff4f4"/><path d="M156 461c2.345 1.631 2.913 2.56 3.469 5.375.084 7.056.084 7.056-2.531 9.75-3.538 1.054-6.265 1.283-9.937.875-2.104-1.543-2.841-2.681-4-5-.348-3.762-.506-6.141 1.438-9.437 3.681-2.244 7.35-2.424 11.563-1.562z" fill="#e6f6fe"/><path d="M140 456l1 3 1.375-1.5C144 456 144 456 146 456v2l2.012.113c5.096.379 8.766.754 12.988 3.887h1v14l-3-1-1 3-4.75.563-2.672.316c-2.462.116-4.244-.143-6.578-.879v2h-3v-2h-6l1-2h4l1-2-3-1v-9h3v-3l-2-1 1-4zm4.438 6.563c-1.971 3.341-1.847 5.617-1.437 9.438 1.017 2.761 1.362 3.681 4 5 3.609.272 6.462.16 9.938-.875 2.966-3.056 2.58-5.628 2.531-9.75-.556-2.815-1.124-3.744-3.469-5.375-4.212-.861-7.882-.682-11.562 1.563z" fill="#5e91e3"/><path d="M629.992 468.672c2.008.328 2.008.328 3.754 1.426 1.878 2.849 1.541 5.224 1.441 8.59l-.082 3.574L635 485l-2.437-.562L630 484l-1 1c-2.937.25-2.937.25-6 0-2-3-2-3-1.687-5.25L622 477l.5-3.75c.819-5.325 2.427-4.391 7.492-4.578z" fill="#e7f8e7"/><path d="M631 430h5v8h8c1.067 3.462 1.102 6.64 1.063 10.25l-.027 3.266L645 454h-4l-1-12-4 2c-.702 2.417-.702 2.417-.75 5.125l-.172 2.758L635 454h-4v-24z" fill="#f2fcf6"/><path d="M579 430h5l1 12 3-3c2.188.313 2.188.313 4 1l-1.562 1.688c-1.664 2.204-1.664 2.204-1.375 4.75 1.127 3.08 2.775 5.12 4.938 7.563-2.812.25-2.812.25-6 0-1.875-2-1.875-2-3-4l-1 4-5-1v-23z" fill="#cbe2cd"/><path d="M78 461c6.222-.359 6.222-.359 9.438 1.125C89 464 89 464 89.313 467.125 89 470 89 470 88 471c-2.671.141-5.324.042-8 0v2l8-1v4c-3.554 1.185-6.27 1.266-10 1-1.875-1.062-1.875-1.062-3-3-.844-3.57-1.395-5.972-.062-9.437L76 463h2v-2z" fill="#adcfee"/><path d="M289 104l4.813-.25 2.707-.141c2.48.391 2.48.391 4.293 2.016 1.521 3.043 1.485 5.239 1.375 8.625l-.082 3.266L302 120l-5.875.063-3.305.035C290 120 290 120 288 119v-7c3.135-1.858 5.375-2.201 9-2l-1-2h-7v-4z" fill="#f4cece"/><path d="M602.5 438.25l2.406.203C607 439 607 439 609 442v6l-9 1v2h7l-1 3c-3.051.288-5.957.42-9 0-2.125-2.062-2.125-2.062-3-5a38.28 38.28 0 0 1 2-10c2.46-1.23 3.783-1.015 6.5-.75z" fill="#e3f4e0"/><path d="M104 461l3.813-.125 2.145-.07C112 461 112 461 115 463c.293 3.258.293 3.258.188 7.125l-.082 3.883L115 477l-5.312.125-2.988.07C104 477 104 477 101 475c-.436-2.832-.397-4.361 1.125-6.812 2.65-1.679 4.807-1.392 7.875-1.187v-3l-7 1 1-4z" fill="#eaf9fd"/><path d="M573 438c2.43 2.314 2.967 3.656 3.293 7.016l-.105 3.234-.082 3.266L576 454l-5.875.125-3.305.07C564 454 564 454 562 452c.33-3.297.623-4.623 3-7l2.563-.5L570 444l1-2h-8l1-3c3.083-1.542 5.609-1.297 9-1z" fill="#edfaed"/><path d="M259 328h1v68h9v-68h1l1 71h-12v-71z" fill="#838383"/><path d="M656.063 438.5c3.938.5 3.938.5 5.938 1.625 1.421 2.664 1.198 4.91 1 7.875h-10v3l9-1v3c-2.327 1.163-3.847 1.199-6.437 1.25l-2.371.078C651 454 651 454 649.242 452.695c-2.102-2.869-1.656-5.268-1.242-8.695 2.041-3.997 3.665-5.314 8.063-5.5z" fill="#c5d8c6"/><path d="M329 104c9.18-.195 9.18-.195 12 0 2.734 2.734 2.953 4.77 3.098 8.578l-.035 2.672-.027 2.703L344 120h-5l-1-12h-3l-1 12h-5v-16z" fill="#fae3e4"/><path d="M384 73c5.957-.391 5.957-.391 8 0 2.358 2.232 2.954 3.557 3.293 6.797l-.105 2.953-.082 2.984L395 88l-2.437-.062c-2.496-.234-2.496-.234-3.562 1.063-6.72-.72-6.72-.72-8-2-.312-2.375-.312-2.375 0-5 2.379-2.653 3.671-2.981 7.25-3.187L391 79l-1-2c-3.629-.151-3.629-.151-7 1l1-5z" fill="#fae9dd"/><path d="M391.5 103.5c5.203.743 5.203.743 7.5 3.5.25 3.188.25 3.188 0 6h-11v2h10l-1 4h-10v-2h-2c-1.427-2.853-1.31-4.835-1-8 2.114-3.889 3.068-4.867 7.5-5.5z" fill="#f7e2d6"/><path d="M296 67h4l.621 2.152.816 2.785.809 2.777c.544 2.225.544 2.225 1.754 3.285l2-6 4 2-1.437 6.938-.809 3.902C307 88 307 88 306 89h-5c-5.403-15.559-5.403-15.559-5-22z" fill="#f3d5d0"/><path d="M366 74l-2 2h-3v3h6l1-4 3 1v6c-1 1-1 1-2.848 1.098L362 83v2l8-1v4c-3.216 1.608-6.522 1.605-10 1-2.5-2.125-2.5-2.125-4-5-.25-3.312-.25-3.312 0-6h2v-3c2.709-1.354 5.009-1.065 8-1z" fill="#fcf8fb"/><path d="M553 432h6v22h-4l-1-12-.75 2.813c-1.315 3.352-2.23 4.375-5.25 6.188 1.215-6.478 2.822-12.777 5-19z" fill="#e7f9e5"/><path d="M44 328h1v56h2l1 25-4 2 1-2c.534-6.982-.05-13.924-.718-20.872-1.052-10.983-1.481-21.854-1.469-32.878l-.002-2.039c.001-8.453.335-16.801 1.19-25.211z" fill="#91b3e9"/><path d="M585 465h5v4h3v4h-3v9h3l-1 3-7-1-1.125-6.687-.633-3.762c-.245-3.588.131-5.399 1.758-8.551z" fill="#e1efe0"/><path d="M321 95h5v24l-5 1-.562-11.375-.17-3.273-.146-3.125-.143-2.888C320 97 320 97 321 95z" fill="#d68f89"/><path d="M339 65h5l-1 24-5-1-.625-10.375-.195-2.984-.156-2.852-.159-2.634C337 67 337 67 339 65z" fill="#dc898c"/><path d="M560 470c3.716-.201 4.772-.152 8 2 .188 3.125.188 3.125 0 6h-11v2l10 2-1 3c-7.059.353-7.059.353-10.5-.937-2.445-3.362-1.803-7.045-1.5-11.062l4-2v4h6v-3h-5l1-2z" fill="#f2fdf0"/><path d="M101 453v3h-4v5h3v3h-3v12l-4 1v-13h-3v-3h2l-.187-2.312C92 456 92 456 93.125 454.188c2.65-1.679 4.807-1.392 7.875-1.187z" fill="#ddedfc"/><path d="M640 469h8l1 4-5 1v2l5 2-1 6c-3.473 1.158-6.361 1.069-10 1l-1-3 7-1c-3.321-2.77-3.321-2.77-7-5l1-5h2v-2z" fill="#e6f7e4"/><path d="M411 104v3h-6v3l2.375.375C410 111 410 111 412 113c-.33 3.297-.623 4.623-3 7-2.688.27-5.291.087-8 0l-1-4h7c-2.052-2.248-3.007-3.002-6-4-1.309-4.403-1.309-4.403-.062-6.812 3.295-1.897 6.305-1.372 10.063-1.187z" fill="#f1d2cf"/><path d="M544 465h5v5h3v2h-3v9h4l-1 4-7-1c-1.203-2.405-1.101-3.95-1.062-6.625l.027-2.477L544 473h-2v-3h2v-5z" fill="#f2fdec"/><path d="M284.063 95.938L287 96v3l-3 1c-.733 2.015-.733 2.015-1 4h4v3h-4v13h-4v-13h-2v-3h2l.438-3.437c.718-4.545.718-4.545 4.625-4.625z" fill="#fdedeb"/><path d="M124 464c3.054.033 5.969.567 9 1l1 11c-2.687 2.125-2.687 2.125-6 4-2.875-.75-2.875-.75-5-2v-1l7-1v-3l-2.812.188C124 473 124 473 122.063 471.75 121 470 121 470 121.188 467.938 122 466 122 466 124 464z" fill="#5b95ea"/><path d="M653 469c2.164-.293 2.164-.293 4.625-.187l2.477.082L662 469l-1 4h-5v2l2.375.688C661 477 661 477 662.313 479.625L663 482h-2l-1 3h-9v-3h7c-.88-2.248-.88-2.248-3.5-3.312C652 477 652 477 651.063 474.5 651 472 651 472 653 469z" fill="#e0f4dc"/><path d="M559 249c6.119-.106 11.92.226 17.973 1.094l2.45.336 7.64 1.07 5.225.723L605 254v1c-12.446-.562-24.679-2.205-37-4v3h-5v2h5l-1.062 2.063c-1.164 3.646-.666 6.222.063 9.938-2.556-2.556-3.291-4.997-4.562-8.375l-1.316-3.461c-.85-2.4-1.533-4.697-2.121-7.164z" fill="#8bb698"/><path d="M284 99l1 4h11v1h-7v4l7-1 1 3-8 2-1 7 1.793-.035c4.209-.048 8.099-.025 12.207 1.035v1l-6.375.063-3.586.035C289 121 289 121 287 120c-.594-2.649-.742-5.292-1-8l-2 7h-1v-12h4v-3h-4l1-5z" fill="#c26f74"/><path d="M572 469c1.945-.293 1.945-.293 4.125-.187L580 469l1 4h-6c1.933 2.025 3.632 3.421 6 5l-1 6c-2.957 1.478-5.742 1.06-9 1v-3h6l-1-4-6-1c-.201-3.716-.152-4.772 2-8z" fill="#f6fcea"/><path d="M621 435h4v3h4v4h-4l1 8 3 1v3h-6c-2-2-2-2-2.195-4.383l.07-2.742.055-2.758L621 442l-3-1v-2l2-1 1-3z" fill="#e2f7e5"/><path d="M417 100h3v4h3l1 3h-4v9h4l-1 4c-2.375.125-2.375.125-5 0-2-2-2-2-2.195-4.602l.07-3.023.055-3.039L416 107h-3v-3h3l1-4z" fill="#fdeeee"/><path d="M677 499h1c.625 2.813.625 2.813 1 6l-2 3h-2l-.25 2.125c-1.899 7.278-7.793 12.162-13 17.25l-2.258 2.23L654 535l-3-1 2.375-2.312c2.698-2.596 2.698-2.596 4.625-5.687h2l1-3 2.375-1.875c2.747-2.223 3.969-4.039 5.625-7.125 1.63-2.764 3.294-5.424 5.125-8.062 1.584-2.482 2.436-4.082 2.875-6.937z" fill="#e0f0df"/><path d="M130 461v4l-2.875-.125c-3.227-.225-3.227-.225-5.125 2.125-.167 2.584-.167 2.584 0 5l8 1v3c-5.868 1.526-5.868 1.526-8.801.164-2.817-2.111-4.101-3.735-4.887-7.164 1.796-7.837 6.69-8.593 13.688-8z" fill="#dff0fc"/><path d="M416 99l4 1-3 1-1 3h-3v3h3v9h-1v-8h-2v5l-2.312-.937L405 110v-3h6v-3l-10 1-1 9-12 1v-2h11v-6l-4-2c3 0 3 0 5 1v-3h15l1-4z" fill="#cc7a7f"/><path d="M70 232c1.125 3.375.888 4.082-.25 7.313l-.766 2.238C68 244 68 244 66.477 246.84c-1.637 3.503-2.238 6.599-2.852 10.41-1.152 6.555-3.221 12.032-6.625 17.75l-2-1c1.419-6.954 2.94-13.427 6.035-19.828 1.038-2.338 1.725-4.644 2.402-7.109C64.957 241.686 67.359 236.906 70 232z" fill="#6894f1"/><path d="M375 100h4v4h4v3h-4v9h4v3h-7c-.961-2.882-1.106-4.699-1.062-7.687l.027-2.449L375 107h-3v-3h3v-4z" fill="#fde4d9"/><path d="M348 69h3l1 3 3 1v3h-4l1 8 3 1-1 4h-5c-2.248-4.497-2.167-8.079-2-13h-2v-3h2l1-4z" fill="#fbece4"/><path d="M57 455c11 0 11 0 14 2l-1 2-3-1 .625 1.875L68 462c-2 2-2 2-5.125 2.125L60 464v-3h-2l1 16h-2v-22z" fill="#d0ebfc"/><path d="M577 435l2 1 1 17 4 1v-5l4 3v2c-3.897 1.867-6.541 2.14-10.812 1.625l-2.957-.336L572 455l4-1-.375-5.812-.211-3.27c-.226-3.104-.226-3.104-2.414-5.918-2.563-.73-2.563-.73-5-1v-1l6.152-.684c1.859-.135 1.859-.135 2.848-1.316z" fill="#78a37e"/><path d="M351.82 103.805L361 104v16l-2-1 1-4h-2l-1-8-6 2c-.25 3.416-.25 3.416 0 7l3 2h-5c-2.471-7.877-2.471-7.877-2-12 2-2 2-2 4.82-2.195z" fill="#f9efe8"/><path d="M134 457h4v4h3v3h-3l.375 4.438.211 2.496L139 473l2 1-1 3-5-1c-.961-2.882-1.106-4.699-1.062-7.687l.027-2.449L134 464h-3v-3h3v-4z" fill="#e7f7fe"/><path d="M95 189l2 1v2h-2l-1 4h-2v5h-3v2h45l-1 2H87c1.293-6.467 4.346-10.582 8-16z" fill="#d27b7e"/><path d="M162 461h10v4l-4 1-1 11-5-1v-15z" fill="#bddbfb"/><path d="M92 451l3.813-.062 2.145-.035C100 451 100 451 103 452l1 7h9l1 4-2-1-5.125-.562-2.758-.254L102 461v-3l-2 2-3 1v-5h4v-3c-3.475.54-3.475.54-7 2-1.531 3.006-1.531 3.006-2 6h-2l-1 3v-5h2l-.062-2.875C91 453 91 453 92 451z" fill="#6693da"/><path d="M121 332h1l1 35h1l1 9 3 1v1h-6c-3.293-3.293-2.129-13.385-2.139-17.906l.014-2.782.006-2.899c.045-7.507.405-14.938 1.119-22.414z" fill="#d2e4fa"/><path d="M578 316h2c2.143 19.312 3.082 38.634 1 58h-1l-.031-1.74-.341-17.859-.125-6.673-.186-9.569-.051-3.033-.06-2.791-.047-2.47c.043-1.881.043-1.881-1.158-2.867-.072-1.853-.084-3.708-.062-5.562l.027-3.066L578 316z" fill="#cbe5cd"/><path d="M83.874 210.962l5.2.124 2.778.064 5.838.147 8.902.211 5.67.141 2.681.06c4.444.123 8.682.417 13.058 1.291v1c-15.695.14-31.322-.26-47-1l-.906 3.348c-.988 3.299-1.74 5.2-4.094 7.652h-2c4.018-12.981 4.018-12.981 9.874-13.038z" fill="#7ca7eb"/><path d="M313 96h4v24h-4V96z" fill="#fee8ed"/><path d="M303 581l2.891.438c17.281 2.321 34.714 1.746 52.109 1.563l-3 7-1-3 1-2-3.789.016-14.034.039-6.052.021-8.743.022-2.694.016c-5.952.001-11.778-.415-17.689-1.113l1-3z" fill="#6594de"/><path d="M327 73h9l1 3-4 1-1 12-5-1V73z" fill="#f8e0dd"/><path d="M635 430h1v8h8c1.067 3.462 1.102 6.64 1.063 10.25l-.027 3.266L645 454h-4l-1-12-4 1c-1.005-3.015-1.103-5.042-1.062-8.187l.027-2.73L635 430z" fill="#bbe2be"/><path d="M580 145c5.221 4.236 9.461 8.672 13.625 13.938l1.656 2.053c3.395 4.235 6.602 8.567 9.719 13.01l-2 2v-2h-3l-2-6h-6l1-6-2.375-.687C588 160 588 160 586.688 157.563 586 155 586 155 586 152h-3v-3l-3-1v-3z" fill="#c46871"/><path d="M356 71h14v5h-2l-1 3h-6v-3l3-1h-6l-1 3-5-1v7h-1v-8h4l1-5z" fill="#d27473"/><path d="M308 662l49 2 1-2 1 4c-11.176.245-22.225-.104-33.375-.937l-3.546-.263c-4.771-.376-9.397-.78-14.079-1.799v-1z" fill="#7da2dd"/><path d="M648 468l5 1-1 7 3 1.875 3 2.125v2h-7l-1 3v-2l-2-1v-4l-1.937-.812C644 476 644 476 643 473h6l-1-5z" fill="#96b79b"/><path d="M584 466c1 3 1 3 .535 4.828-.685 2.779-.402 5.083-.098 7.922l.309 2.984L585 484h8v2h-9v-4h-2v-6l-7-1v-2h6l-1-3c-3.008-1.225-3.008-1.225-6-2v-1l1.934.035 2.504.027 2.496.035c2.058.135 2.058.135 3.066-1.098z" fill="#7da786"/><path d="M54 276h1c.185 5.353-.297 8.891-2 14-.425 2.45-.799 4.91-1.125 7.375l-.508 3.773L51 304h-2l-.184 3.219C47.998 321.157 47.998 321.157 47 328h-1c-.207-7.527.408-14.789 1.375-22.25l.383-3.18c.645-5.097 1.428-9.738 3.242-14.57l1.625-6.375.789-3.211L54 276z" fill="#6691dc"/><path d="M535 432h6v5l-3-1 1 18h-4v-22z" fill="#e6f9e6"/><path d="M289 104l4.875-.187 2.742-.105L299 104c2.351 3.527 2.214 5.029 2.125 9.188l-.055 3.293L301 119l-4-1-1-10h-7v-4z" fill="#fdf6f7"/><path d="M114 463h1v14c-10.625.25-10.625.25-14-2-.187-2.625-.187-2.625 0-5l2 1a157.03 157.03 0 0 0 7-1l2 6h2v-13z" fill="#c3dcfa"/><path d="M625.848 468.902L632 469v1h-7v2l2.438-.062C630 472 630 472 631 473c.188 3.438.188 3.438 0 7l-2 2h-4l1-4-4-1c1.012-7.948 1.012-7.948 3.848-8.098z" fill="#a7c8b3"/><path d="M77 465l1 3 2 1h-2l1 3h9v4c-3.554 1.185-6.27 1.266-10 1-1.875-1.062-1.875-1.062-3-3-.687-3.687-.687-3.687-1-7l3-2z" fill="#d1eefb"/><path d="M356 78l3 6 1-2h10v1h-8v2l8-1v4c-3.216 1.608-6.522 1.605-10 1-2.5-2.125-2.5-2.125-4-5-.25-3.312-.25-3.312 0-6z" fill="#ebbdbb"/><path d="M595 440c1 2 1 2 .438 5.375-.437 3.617-.469 4.738 1.563 7.625l2 2c-2.995.998-4.173 1.007-7.187.563L588 455v-1l5-1-2.562-2.187C588 448 588 448 588.188 445.188L589 443h5l1-3z" fill="#7eac8a"/><path d="M660 439c2 2 2 2 2.125 5.125L662 447h-9v-2h6v-3h-8v6h-2c-.356-5.333-.356-5.333 1-7.875 3.339-1.878 6.21-1.426 10-1.125z" fill="#ebf9eb"/><path d="M580 431h3v23h-3v-23z" fill="#f0fbf5"/><path d="M296 67h4c2.415 7.002 3.592 13.609 4 21h-2l-.812-3.75c-.642-2.629-1.033-4.059-2.75-6.187-2.313-3.318-2.192-7.104-2.437-11.062z" fill="#fbece3"/><path d="M604 470h3v22h-3v-22z" fill="#f3faeb"/><path d="M346 604h1v6h4c-1.258 4.508-2.904 7.491-6 11v-8c-2.011 2.56-3.628 5.046-5 8-1-3-1-3 .434-6.355l2.004-3.832 1.025-1.982L346 604z" fill="#def0f2"/><path d="M148 464c2.375-.125 2.375-.125 5 0 2 2 2 2 2.125 5.125L155 472l-7 1c-1-1-1-1-1.125-3.937C147 466 147 466 148 464z" fill="#6a98e7"/><path d="M362 104l.875 1.813c1.172 2.381 1.172 2.381 3.125 5.188.707 5.96-.158 9.531-3.555 14.5-1.445 1.5-1.445 1.5-4.258 2L356 127l1.938-1.312c2.435-1.992 2.933-3.488 3.268-6.589l.111-2.111.127-2.295.119-2.381.131-2.416L362 104z" fill="#ce5e62"/><path d="M321 104h4v16h-4v-16z" fill="#fde7dd"/><path d="M305 104h4v16h-4v-16z" fill="#fbe0da"/><path d="M158 464h1c.285 3.379.423 6.629 0 10-2.795 2.88-4.657 2.964-8.625 3.375C147 477 147 477 145.063 475.625 144 474 144 474 144 472h2v-5h1l1 5 3.313-.062C155 472 155 472 158 473v-9z" fill="#d0e4fd"/><path d="M277 656l6.125-.125 3.445-.07c3.512.2 6.14 1.003 9.43 2.195 2.667.473 5.302.721 8 1v2l2 1c-10.014-.386-19.338-2.539-29-5v-1z" fill="#85a3eb"/><path d="M518 424h2l-1 6h-2l-5 26h-1l-.062-6.25-.035-3.516c.08-2.644.311-4.733 1.098-7.234h2l-.187-3.625c-.015-4.118 1.024-6.827 3.188-10.375l1-1z" fill="#dcf2e3"/><path d="M576 242c10.397-.113 20.635.08 31 1v3c-10.408-.568-20.673-1.602-31-3v-1z" fill="#d18788"/><path d="M612.063 472.938L615 473c.8 3.287 1.097 4.71 0 8-2.375.625-2.375.625-5 1-2-2-2-2-2.187-5.062.25-3.918.25-3.918 4.25-4z" fill="#7ea78a"/><path d="M144 231c1.987 1.642 2.92 2.494 3.328 5.086l-.078 2.289-.078 2.395c-.19 2.471-.552 4.829-1.172 7.23-3.33-3.829-5.053-8.375-7-13h5v-4z" fill="#e8f5fb"/><path d="M354.625 106.875L357 107l1 7-2 2c-4.556-.556-4.556-.556-6-2-.187-2.437-.187-2.437 0-5 2-2 2-2 4.625-2.125z" fill="#c96671"/><path d="M323 72c2.491 3.737 2.207 5.745 2.125 10.188l-.055 3.855L325 89l-3-1-4 1 5-17z" fill="#d76a71"/><path d="M141 461l1 3 2 1v9h-2v3l-2-1 1-2-3-1v-9h3v-3z" fill="#7da4e9"/><path d="M151 229h1l1 7h2v-3h2l1-3 1 4h-2l-.812 2.813c-1.099 2.95-1.812 4.244-4.187 6.188-4-6.625-4-6.625-4-10h2l1-4z" fill="#c85d60"/><path d="M635 472l2 1v3l2.313.813c2.561 1.132 3.884 2.1 5.688 4.188-1 1-1 1-4.562 1.063L637 482l1 3h-3v-13z" fill="#87a98f"/><path d="M67 473l2 1v2l6 1 1-2 2 1 5.125.563 2.758.254L88 477v2c-7.75.125-7.75.125-10-1v2c-3.937 1.312-6.125.243-10-1l-1-6z" fill="#6093e1"/><path d="M640 469h8l1 4-2.375.375c-2.766.416-2.766.416-4.625 2.625h-5l1-5h2v-2z" fill="#d4ebda"/><path d="M623 468c2.066 4.131-.12 9.602-1 14v2h-4v-4h2c-.438-4.557-.85-7.577-4-11 2.463-1.231 4.28-1.072 7-1z" fill="#7eab8e"/><path d="M554 440h1v14l5 1c-3.344 1.115-4.667.917-8 0l-3-2 5-13z" fill="#84ab8a"/><path d="M602.625 438.438l2.477.309L607 439v3l-3-1 1 3c-1 1-1 1-3.937 1.25L598 445c-2-3-2-3-2-6 2.521-1.26 3.854-.919 6.625-.562z" fill="#d2ecd2"/><path d="M144 130v2l-3.687 3.313c-3.266 2.772-6.332 5.614-9.312 8.688-.687-1.75-.687-1.75-1-4 1.25-2.25 1.25-2.25 3-4h3l1-5c3-1 3-1 7-1z" fill="#fcebdc"/><path d="M308 67l5 1 2 11-4-1-1-4-3 1 1-8z" fill="#fdf3ee"/><path d="M560 470c3.716-.201 4.772-.152 8 2v3c-2.38 1.19-3.915 1.133-6.562 1.125l-2.441.008C557 476 557 476 556 475v8l-2-1v-9l4-2v4h6v-3h-5l1-2z" fill="#e1f4e3"/><path d="M468 548l-2 1v2l-3.437 1.188c-4.152 1.54-7.873 3.576-11.68 5.824C449 559 449 559 447 559v-2l5-3 1-2 4 1 .813-1.937c2.269-3.941 6.098-3.153 10.188-3.062z" fill="#e7f6e6"/><path d="M542 472h3l1 6h1l1-5h1v8h4l-1 4-7-1c-1.203-2.405-1.101-3.95-1.062-6.625l.027-2.477L544 473l-2-1z" fill="#d1ebd5"/><path d="M30 436h1c1.25 7.625 1.25 7.625-1 11-.454 2.279-.454 2.279-.625 4.688l-.227 2.449L29 456h-2v12h-1c-.653-11.287 1.237-21.122 4-32z" fill="#6794de"/><path d="M326 104h3v16l-6 1 2-2a101.71 101.71 0 0 0 .625-7.625l.117-2.141L326 104z" fill="#ba5350"/><path d="M377 105l3 1-1 10h4v3h-7l-.062-5.312-.035-2.988C376 108 376 108 377 105z" fill="#fcf0eb"/><path d="M391.313 103.75c3.688.25 3.688.25 6.125 1.375 2.189 2.626 1.857 4.561 1.563 7.875h-1v-5h-3v2h-7l1-4-2-1c1-1 1-1 4.313-1.25z" fill="#f9ded6"/><path d="M35 498l2 1c.594 2.649.742 5.292 1 8l3 1 1 3 3 2c.949 2.164.949 2.164 1.688 4.625l.762 2.477L48 522c-3.597-3.292-6.096-6.918-8.687-11l-1.221-1.867C34.323 503.25 34.323 503.25 34 500l1-2z" fill="#7394de"/><path d="M120 460l3 1-1.934.73c-2.222 1.08-2.222 1.08-2.852 3.258-.29 2.433-.484 4.571-.215 7.012 2.251 3.088 2.251 3.088 5 5l-8-1v-12h3v-3l2-1z" fill="#6e97e3"/><path d="M44 386h1c2.564 20.287 2.564 20.287-.117 24.938C43.5 412.313 43.5 412.313 41 414l-1-3 3-4c.498-2.406.498-2.406.512-4.984l.107-2.832.068-2.934.104-2.98L44 386z" fill="#e7f8fe"/><path d="M362 584h3l-2 6h-2l-.812 3.313c-1.118 3.473-1.625 4.406-4.187 6.688-.229-3.033-.357-5.974 0-9 1.875-1.812 1.875-1.812 4-3 1.252-2.083 1.252-2.083 2-4z" fill="#ecf9ee"/><path d="M121 377l8.125 1.375 2.305.383c4.349.75 8.411 1.714 12.57 3.242v1l-10 1v-2l-2.082-.148-2.73-.227-2.707-.211C124 381 124 381 121 379v-2z" fill="#6797e9"/><path d="M568 241c9.397 1.036 18.726 2.117 28 4v1l-11.75-.25-3.367-.043-3.242-.098-2.983-.063c-3.303-.679-4.523-2.004-6.657-4.546z" fill="#fcefe7"/><path d="M159 117l2 1c-1.25 2.438-1.25 2.438-3 5l-2.062.5-1.937.5-.937 2.5L152 129c-2.81.937-5.038 1-8 1l6.375-5.937 1.828-1.709 1.758-1.631 1.619-1.508C157 118 157 118 159 117z" fill="#ca7279"/><path d="M283 107l1 3h6l-2 9 4.188-.062c3.405-.005 6.497.207 9.813 1.063v1l-6.375.063-3.586.035C289 121 289 121 287 120c-.594-2.649-.742-5.292-1-8l-2 7h-1v-12z" fill="#cb6868"/><path d="M391 79l1 5-7 1v-2h-3l-1 4c-.25-2.312-.25-2.312 0-5 2.998-3.344 5.678-3.295 10-3z" fill="#e5b3b5"/><path d="M409 36l3 1v2h2l3.125 3.5 1.633 1.969L420 46l-1 2c-4.145-1.382-7.219-2.512-9.312-6.5C409 39 409 39 409 36z" fill="#c9696b"/><path d="M539 440l2 1 1 7h2c-.75 2.875-.75 2.875-2 6l-4 2 1-16z" fill="#8db095"/><path d="M621 435h4v3h4v4c-4.75-.875-4.75-.875-7-2v2l-4-1v-2l2-1 1-3z" fill="#e2f6de"/><path d="M135 208c2.337 2.337 3.271 4.491 4.625 7.5l1.352 2.969C142 221 142 221 142 223h-2l-3-4-1 2h-2l-1-5h2v-8z" fill="#fbefe7"/><path d="M270 60c-3.277 2.903-5.953 3.58-10.25 4.188l-3.266.48L254 65l-1 3-7-1c3.955-2.637 8.052-3.771 12.563-5.187l2.654-.865 2.537-.803 2.323-.739C268 59 268 59 270 60z" fill="#c36366"/><path d="M262 563v3h2v3l7 1c-3.618 1.318-5.577.675-9.062-.812l-2.598-1.082C257 567 257 567 254 565v-2c2.862-1.431 4.934-.6 8 0z" fill="#cfe8fc"/><path d="M576 444h1v8l7 2v-5l4 3v2c-3.897 1.867-6.541 2.14-10.812 1.625l-2.957-.336L572 455l4-1v-10z" fill="#7eac87"/><path d="M556 436h2v17h-3l-.062-6.25-.035-3.516c.08-2.644.311-4.733 1.098-7.234z" fill="#f8fef0"/><path d="M649 438h11v1l-3.812.25c-3.411.41-3.411.41-6.062 2.563L649 444l-1.125 1.875c-1.099 2.669-1.486 5.274-1.875 8.125h-1l-1-14h5v-2z" fill="#9ac5a3"/><path d="M438 562l2 1c-4.432 4.899-8.55 6.179-15 7-2.336.956-2.336.956-4 2l-1-3 2.414-.77c6.768-2.123 6.768-2.123 13.211-5.043L438 562z" fill="#8fb194"/><path d="M356 74c1.044 3.391 1 6.471 1 10l1 3-4 2 1-4h-3v-8h4v-3z" fill="#c56567"/><path d="M327 665c10.702-.173 21.321.369 32 1v1l-12.625.625-3.605.195-3.496.156-3.206.159c-3.344-.147-5.956-.94-9.068-2.135v-1z" fill="#eafafe"/><path d="M104 461h8l1 4h-2v3l-9 2 2-3c3.125-.187 3.125-.187 6 0v-3l-7 1 1-4z" fill="#d7e7fa"/><path d="M640 439c1.938.375 1.938.375 4 1 1.382 2.765 1.095 5.046 1.063 8.125l-.027 3.32L645 454h-3l-.184-2.266-.254-2.984-.246-2.953A41.3 41.3 0 0 0 640 439z" fill="#f5fef0"/><path d="M218 166l3 1c-3.75 3-3.75 3-6 3l-.625 1.875c-1.917 2.963-4.076 3.142-7.375 4.125l-1 2v-3h2v-3h3v-4l2.375-.437c2.589-.44 2.589-.44 4.625-1.562z" fill="#bf5d5a"/><path d="M339 73h3v15h-3V73z" fill="#fff6f3"/><path d="M585 465h5v4h3v4h-3v9l3 1h-4l-.562-6.25-.316-3.516c-.103-2.753.017-4.654.879-7.234h-3l2 1v2h-3v-4z" fill="#cfe9d1"/><path d="M321 67h3c-.479 4.714-.968 8.666-3 13h-2c-.167-4.921-.248-8.503 2-13z" fill="#fef1ed"/><path d="M607 470h8c-1.392 2.784-3.156 2.979-6 4-.08 3.522-.04 6.62 1 10h-2v8h-1v-22z" fill="#e7f2e5"/><path d="M197 476h2c.584 7.45-1.218 14.086-4 21l-2 1 .438-4.437.246-2.496C194 489 194 489 195 488a164.24 164.24 0 0 0 1.063-6.062l.535-3.348L197 476z" fill="#6895e6"/><path d="M625 470h8c1 1 1 1 1.098 3.066l-.035 2.496-.027 2.504L634 480h-3l-1-7-5-1v-2z" fill="#fcfdf6"/><path d="M573 438l2 4-2-1-1 4-2-1 1-2h-8l1-3c2.957-1.478 5.742-1.06 9-1z" fill="#c7dfc8"/><path d="M594 162h2l4.625 6 1.273 1.734L605 174l-2 2v-2h-3l-2-6h-6l2-6z" fill="#c76360"/><path d="M405 107h11v9h-1v-8h-2v5l-2.312-.937L405 110v-3z" fill="#c9706d"/><path d="M181 614c5.275.406 7.473 1.108 11 5 2.138.787 2.138.787 4 1v3h4v2c-4.743-1.377-8.725-3.438-12.875-6.062l-1.797-1.104c-1.463-.912-2.899-1.869-4.328-2.834v-1z" fill="#7d9de3"/><path d="M589 558c1 3 1 3 0 5.313-2.577 3.463-5.639 6.008-9 8.688l-2-2 2.152-2.117 2.785-2.758 2.777-2.742c2.297-2.16 2.297-2.16 3.285-4.383z" fill="#e2f3e3"/><path d="M650 449l3 1 4.688.063 2.449-.027L662 450v3c-2.341 1.171-3.894 1.199-6.5 1.25l-2.406.078L651 454l-2-3 1-2z" fill="#e4f5e7"/><path d="M498 173c6.75 1.75 6.75 1.75 9 4v3h4l2 6c-10.536-7.717-10.536-7.717-15-12v-1z" fill="#ca646c"/><path d="M310 72h1l1.563 5.75.879 3.234c.53 2.859.542 4.332-.441 7.016l-3-6-1 6h-2c.59-5.508 1.567-10.649 3-16z" fill="#c56c75"/><path d="M637 442h3l1 6h-2l-1-2v7l-3 1-.125-4.875-.07-2.742C635 444 635 444 637 442z" fill="#7da782"/><path d="M192 95c-.812 1.938-.812 1.938-2 4l-3 1-2-1-1 5h-7l4-4h3v-2c2.905-2.042 4.401-3 8-3z" fill="#ca6c72"/><path d="M327 73h9l1 3c-3.287.8-4.71 1.097-8 0l-1 12h-1V73z" fill="#fcd4c9"/><path d="M307 68c1 2 1 2 .223 4.602l-1.16 3.023-1.152 3.039L304 81c-1.979-3.636-2.525-6.884-3-11l6-2z" fill="#be6163"/><path d="M557 478h11v5l-3.812-.375-2.145-.211C560 482 560 482 557 480v-2z" fill="#9db9a0"/><path d="M584 445c3 0 3 0 4.824 1.715l1.863 2.223 1.887 2.215C594 453 594 453 594 454h-6c-4-6.75-4-6.75-4-9z" fill="#e9f8e4"/><path d="M663 445h1v9l-4-1h2v-3l-2 1h-7v-3h10v-3z" fill="#7eac8a"/><path d="M39 418l1 3h-2l-.312 2c-2.31 10.082-2.31 10.082-6.687 13 1.055-6.121 2.652-10.755 6-16h2v-2z" fill="#78a3e5"/><path d="M54 276h1c.477 8.275-.469 17.493-6 24-.217-4.555.496-7.724 2-12l3-12z" fill="#789fea"/><path d="M400 111l7 3v2h-17v-2h10v-3z" fill="#c85762"/><path d="M297 110l1 5-7 1v-4l-2-1c2.928-.976 4.956-1.082 8-1z" fill="#e5b3b8"/><path d="M152 462l6 2v9l-4 1 .125-3.75c.012-3.266-.268-5.465-2.125-8.25z" fill="#edf7fc"/><path d="M260 143v2l-7.312 3.438-2.092.986L242 153c.563-2.375.563-2.375 2-5 3.188-1.125 3.188-1.125 7-2l3.813-1.625C258 143 258 143 260 143z" fill="#c46062"/><path d="M373 107h2l1 12h7v1h-9c-1.99-3.98-2.224-4.677-1.625-8.75l.336-2.422L373 107z" fill="#d2787a"/><path d="M382 83h3v2l6-1c-.875 3.875-.875 3.875-2 5l-7-1v-5z" fill="#fcd9d8"/><path d="M634 472h1v13c-6-1-6-1-9-3 3.088-1.765 4.233-2 8-2v-8z" fill="#e0f2de"/><path d="M630 473h1v7l-2 2h-4l.563-1.812c.658-2.352.658-2.352-.562-5.187h5v-2z" fill="#b1d0ba"/><path d="M61 458h6c.625 1.875.625 1.875 1 4-2 2-2 2-4.625 2.125L61 464v-6z" fill="#759ae2"/><path d="M530 409l1 2c-2.455 5.727-2.455 5.727-5 7l-.875 3-1.125 3-4 1 4-9h2l.875-1.812C528 412 528 412 530 409z" fill="#81ac8e"/><path d="M621 205c1.014 3.165.954 5.279.188 8.5l-.52 2.281c-.675 2.243-1.563 4.158-2.668 6.219l-1 2h-2l.938-4.375.527-2.461C617 215 617 215 618 213h2l1-8z" fill="#f7d1d2"/><path d="M128 146l1 3h-2l-.75 2.688c-1.324 3.509-2.603 5.666-5.25 8.313-2.75.813-2.75.813-5 1l6-8 2.25-3 1.75-2h2v-2z" fill="#c47173"/><path d="M464 151l7 1 1 3h4v3h5l-1 2c-3.916-.561-6.448-1.688-9.687-3.937l-2.324-1.59C466 153 466 153 464 151z" fill="#d1747f"/><path d="M232 641c14.091 2.114 14.091 2.114 18 7-6.5-.553-13.271-2.271-18-7z" fill="#7ca9f0"/><path d="M167 467h2l.063 4.813.035 2.707C169 477 169 477 168 480l-5-1v-3l4 1v-10z" fill="#5e95e2"/><path d="M572 469h8l1 4h-6l-1 2v-3l-3-1 1-2z" fill="#cdebca"/><path d="M549 441h1v7l1 2-2 4-4-1v-3l2 1-1-5h2l1-5z" fill="#d4ead5"/><path d="M333 186l27 1v1l-10.125.625-2.883.195c-5.141.286-9.171.306-13.992-1.82v-1z" fill="#ffdede"/><path d="M339 110h2v7h2v-7h1v10h-5v-10z" fill="#f0c6c7"/><path d="M367 75l4 1v6h-10v-3h6v-4z" fill="#fce1df"/><path d="M318 65l7 1 1 5-2 1v-5l-3 1c-.802 1.874-.802 1.874-1.187 4.063l-.48 2.223L319 76h-1V65z" fill="#ce686c"/><path d="M348 647l1 2h2l6 12c-1.937-.312-1.937-.312-4-1l-1-3-2.062-1.812C348 653 348 653 347.75 649.75L348 647z" fill="#7094e3"/><path d="M303 581l6.25.875 3.516.492C316 583 316 583 320 585l-18-1 1-3z" fill="#5a93df"/><path d="M101 470l2 1 7-1v3l-6 1v2l-3-1v-5z" fill="#adcae5"/><path d="M164 464h2v12h-3l-.062-5.437-.035-3.059C163 465 163 465 164 464z" fill="#f4fdff"/><path d="M70 232c1.793 5.379-1.351 10.631-3.687 15.563L65 250h-2c1.347-6.61 3.815-12.068 7-18z" fill="#789ae3"/><path d="M520 95l5.109 2.918 4.828 2.707L532 102v2l5 2-2 1c-1.699-.855-1.699-.855-3.687-2.187-3.701-2.422-7.458-4.644-11.312-6.812v-3z" fill="#c46468"/><path d="M382 74l2 3 1-1h5l1 3-5.957 1.465L380 82l2-8z" fill="#bd696f"/><path d="M453 63c6.306 1.109 11.375 2.932 17 6-5.193 1.731-10.263-.149-15.062-2.5L453 65v-2z" fill="#c75c68"/><path d="M340 610h3c-1.311 4.234-2.944 8.074-5 12h-2l-1 4v-7h3l2-9z" fill="#7499e7"/><path d="M352 603v7l-7 1 2-7c3.875-1 3.875-1 5-1z" fill="#f6fdfc"/><path d="M80 462c5.75-.125 5.75-.125 8 1v6h-6l3-1-1-3-5-1 1-2z" fill="#f8fcfe"/><path d="M567.5 444.75c2.5.25 2.5.25 4.5 2.25v4h-6v-3l-3-1c2-2 2-2 4.5-2.25z" fill="#b8ccb6"/><path d="M681 436c2 3 2 3 2 5l2 1v14c-2.083-4.166-2.636-7.711-3.125-12.25l-.262-2.258L681 436z" fill="#c6dec6"/><path d="M412 162l-9 8-1-4c3.376-4.074 4.73-5.317 10-4z" fill="#c36665"/><path d="M549 116c3.552 1.973 6.183 4.089 9 7l3 2v2l3 1-2 1-1.062-1.375c-2.708-2.272-5.545-2.793-8.937-3.625l-.375-2.437L551 119l-2-1v-2z" fill="#c96e6e"/><path d="M305 95h5v6h-6l1-6z" fill="#e9a69d"/><path d="M360 73l3.875-.187 2.18-.105L368 73l2 3h-2l-1 3h-6v-3l3-1-4-2z" fill="#dda4a4"/><path d="M495 628l5 1c-3.546 2.955-7.638 5.459-12 7l-3-1h2l1-4h7v-3z" fill="#77a282"/><path d="M103 454h1v5h9l1 4-2-1-5.125-.562-2.758-.254L102 461l1-7z" fill="#5d97e7"/><path d="M129 218c3.813 3.287 5.23 6.397 7 11h-2v-3h-2v-3h-2l-1 5h-1l1-10z" fill="#6a9dea"/><path d="M395 174l2 1-1.875.75c-2.512 1.478-2.886 2.69-4.125 5.25-3.29 1.097-4.713.8-8 0l7.563-4.687 2.379-1.387L395 174z" fill="#f6e1d8"/><path d="M580 144h5v3l1.938.625C589 149 589 149 589.75 152.125L590 155c-3.596-3.494-6.835-7.111-10-11z" fill="#fee8e3"/><path d="M359 104h2v16l-2-1 1-4h-2c-.125-7.625-.125-7.625 1-11z" fill="#fffbf3"/><path d="M518 93l10 2 2 6c-4.557-1.519-8.317-3.954-12-7v-1z" fill="#f6e2d6"/><path d="M333 76h4v11h-3v-9l-2-1 1-1z" fill="#d56166"/><path d="M346 66h5l.875 2.375c.974 2.722.974 2.722 3.125 4.625l-4-1v-3l-3 1-1 3h-2l-1 3v-4h2v-6z" fill="#ca6c6c"/><path d="M278 49h2v6l-3 1-1 3-4 1 6-11z" fill="#c4696b"/><path d="M661 481l-1 4h-9v-3c6.625-1 6.625-1 10-1z" fill="#e6f8e3"/><path d="M611 247h2c-1.875 6.875-1.875 6.875-3 8l-5.062-.437-2.785-.309L600 254v-1l10-1 1-5z" fill="#e9fbf3"/><path d="M409 111l3 2c-.875 4.875-.875 4.875-2 6-2.671.141-5.324.042-8 0l-1-2 7-1 1-5z" fill="#faece3"/><path d="M420 102h4l1 7-3 1-1 6h-1v-9l3-1v-2h-3v-2z" fill="#c7696b"/><path d="M326 68h1v16h-2l-.625-5.75-.352-3.234C324 71.962 324.386 70.538 326 68z" fill="#c04d49"/><path d="M346 580c10.558-.185 10.558-.185 15 1-1.184 1.508-1.184 1.508-3 3-2.41.18-2.41.18-5.062-.125l-2.66-.258C348 583 348 583 346 580z" fill="#e2f1fb"/><path d="M549 473l4 1v7h-4v-8z" fill="#74a279"/><path d="M648 468l5 1-3 7-7-2v-1h6l-1-5z" fill="#7ea385"/><path d="M88 464h1v6c-1 1-1 1-2.848 1.098L80 471l-1 2-1-4c3.576-1.238 6.337-.749 10 0v-5z" fill="#bcd8f2"/><path d="M77 465l1 3 2 1h-2v5h-3l-1-7 3-2z" fill="#e6f7fe"/><path d="M646 444l5 10-7 2-3-2h5v-10z" fill="#71a581"/><path d="M622 440l3 1-1 10-3-1c-.125-7.75-.125-7.75 1-10z" fill="#f7fcf4"/><path d="M176 404c3.596 3.494 6.835 7.111 10 11h-3v-2h-4c-3-5.625-3-5.625-3-9z" fill="#6e97d9"/><path d="M129 291c1.312 3.937.339 5.779-.937 9.688l-1.152 3.574L126 307h-2l1-8h2l-.125-2.875C127 293 127 293 129 291z" fill="#6498e4"/><path d="M241 153l2 1-4.687 4-2.637 2.25c-2.912 1.904-4.277 2.142-7.676 1.75 3.997-3.372 8.271-6.714 13-9z" fill="#f7d4ce"/><path d="M277 656l6.375-.062 3.586-.035C290 656 290 656 292 657v3l-5.812-.875-3.27-.492C280 658 280 658 277 656z" fill="#89abf0"/><path d="M358 647c4.605 1.454 4.605 1.454 6.313 3.813.786 2.499.832 4.582.688 7.188l-1-2-3-1c-.949-1.848-.949-1.848-1.687-4.062l-.762-2.223L358 647z" fill="#8eaf8c"/><path d="M191 504h1c.25 2.813.25 2.813 0 6-1.875 1.625-1.875 1.625-4 3-1.252 2.083-1.252 2.083-2 4-.75-1.562-.75-1.562-1-4 1.131-2.503 2.521-4.67 4-7h2v-2z" fill="#dcecfc"/><path d="M561 467l3.813-.062 2.145-.035C569 467 569 467 572 468l-1 4-10-3v-2z" fill="#76a47c"/><path d="M102 461l2 1v2h6v3l-7 1c-2-3-2-3-1.625-5.187L102 461z" fill="#889be6"/><path d="M625 442h5v8h-3v-3l-2 1v-6z" fill="#70a17e"/><path d="M631 430h4v8h-4v-8z" fill="#ddfce6"/><path d="M593 243h14v3c-5.192.212-9.127-.409-14-2v-1z" fill="#c46e75"/><path d="M430 135l8.688 2.438 2.387.746C443 139 443 139 444 141c-5.455-.568-9.911-1.946-15-4l1-2z" fill="#ce7877"/><path d="M341 104h8l-3 10-1-4h-2l-2-6z" fill="#c8776a"/><path d="M564 469l-4 2 4 1v3h-6v-4l-2-1c2.709-1.354 5.009-1.065 8-1z" fill="#a7c5ae"/><path d="M139 465h3v7l-4 1v-7l1-1z" fill="#628fe9"/><path d="M658 294h1c1.229 6.068 2.276 11.799 2 18l-2-1c-1.201-5.645-1.104-11.249-1-17z" fill="#8cae92"/><path d="M614 245h1c.359 6.222.359 6.222-1.125 9.438-2.626 2.189-4.561 1.857-7.875 1.563l1.859-.711c2.704-1.628 3.231-3.015 4.391-5.914l1.016-2.477L614 245z" fill="#8db596"/><path d="M612 230c1.248 3.606 1.066 6.347 0 10-2.562 2.375-2.562 2.375-5 4l1.375-4.75.773-2.672c.773-2.339 1.688-4.413 2.852-6.578z" fill="#f7d3cc"/><path d="M622 216h4c-.523 2.763-1.109 5.326-2 8h-2v-2h-2v-2h2v-4z" fill="#e4f6e8"/><path d="M267 138l7 1 1 5-2-4-1.828.727-2.422.898-2.391.914c-2.859.558-3.949-.002-6.359-1.539h6l1-3z" fill="#d1706d"/><path d="M414 108h1l.402 2.152.535 2.785.527 2.777c.312 2.238.312 2.238 1.535 3.285 2.458.333 2.458.333 5 0l2-3-1 5h-8c-1.784-3.062-2.229-5.221-2.125-8.75l.055-2.422L414 108z" fill="#c45d58"/><path d="M389 115h9l-1 4h-10l2-4z" fill="#fad5d2"/><path d="M411 104v3h-7l-1 4-1-5c3.435-2.29 4.985-2.178 9-2z" fill="#fdefec"/><path d="M300 75l1 2h2l1 11h-2l-.875-3.75c-.738-2.974-1.57-5.584-3.125-8.25l2-1z" fill="#fdf1eb"/><path d="M162 601c3.579 1.652 6.748 3.783 10 6-2.601.963-3.947 1.012-6.687.375-2.312-1.375-2.312-1.375-3.125-4L162 601z" fill="#d8eefa"/><path d="M365 584h1c.395 3.452.218 4.702-1.875 7.563L362 594l-2 4-2-1 3-7h2l.438-1.875C364 586 364 586 365 584z" fill="#8ebb9c"/><path d="M516 496c2.73 2.357 3.889 4.581 5 8v3l-4 2v-4h2l-1-4h-2v-5z" fill="#d6f3e2"/><path d="M576 479h2l2 5c-2.957 1.478-5.742 1.06-9 1v-3h6l-1-3z" fill="#def4da"/><path d="M638 476l7 4-1 2h-7l1-6z" fill="#93af97"/><path d="M614 473l2 2-1 6-5 1 1-7h2l1-2z" fill="#89b294"/><path d="M599 448h10l-1 5-1-2h-7l-1-3z" fill="#89b390"/><path d="M137 232c2.967 3.56 5.381 7.652 7 12l-1 2-1.375-2.437c-1.372-2.651-1.372-2.651-3.625-3.562-.594-2.649-.742-5.292-1-8z" fill="#6099e5"/><path d="M140 134c0 3 0 3-1.375 4.438L137 140l-.812 2.063c-1.762 2.875-4.033 3.115-7.187 3.938l1-2h2l.625-1.625c1.955-3.377 4.557-5.68 7.375-8.375z" fill="#c96c68"/><path d="M289 104h10l1 2-4-1v2l-7 1v-4z" fill="#fadfd1"/><path d="M394 78v10h-3l1-7-3-1c3-2 3-2 5-2z" fill="#fef7f4"/><path d="M232 73c-1 3-1 3-3 4l-2 2h-7c1.313-1.5 1.313-1.5 3-3h3v-2c2.076-.553 3.844-1 6-1z" fill="#d06970"/><path d="M318 19h6l-1 4-9 1 2-1.937c2.116-1.703 2.116-1.703 2-3.062z" fill="#e04a58"/><path d="M332 15v2c-4.121 1.998-7.452 2.178-12 2v-2l3.75-1 2.109-.562C328 15 328 15 332 15z" fill="#cd696e"/><path d="M413 656l7 2v1l-5.187 1-2.918.563c-2.688.406-5.182.517-7.895.438 2.938-2.503 5.179-3.469 9-4v-1z" fill="#82b490"/><path d="M304 578v2l2 1-4.75-.375-2.672-.211c-2.569-.413-4.337-1.126-6.578-2.414 4.316-.762 7.744-1.161 12 0z" fill="#d1ecfd"/><path d="M137 464h1l.148 1.934.227 2.504.211 2.496L139 473l2 1-1 3-5-1v-2h2v-10z" fill="#d3ebfe"/><path d="M135 276l-1.375 5.938-.773 3.34L132 288l-2 1 .375-5.937.211-3.34L131 277c2-1 2-1 4-1z" fill="#6c9bdf"/><path d="M416 151h4c-.473 4.255-2.925 6.225-6 9l-2 1c.706-3.669 2.277-6.705 4-10z" fill="#c46c6f"/><path d="M346 628c2.652 1.326 3.251 2.866 4.688 5.438l1.387 2.434L353 638l-1 2c-1.875-.937-1.875-.937-4-3-.954-2.955-1.512-5.937-2-9z" fill="#d2f1e1"/><path d="M62 531h2l.188 1.875c.641 2.403.641 2.403 3.375 3.375L70 537v3c-3.436-1.527-6.119-3.599-9-6l1-3z" fill="#6797e3"/><path d="M544 471h4c.177 4.602.108 6.784-2 11l-2-11z" fill="#f5fef5"/><path d="M92 451l3 1-3 9h-2l-1 3v-5h2l-.062-2.875C91 453 91 453 92 451z" fill="#6099e2"/><path d="M562 448h4v3l3 1-5 2-2-2v-4z" fill="#e9f4e2"/><path d="M29 438c1.583 3.165.331 5.744-.437 9.125l-.871 3.883L27 454h-1l-.187-6.312-.105-3.551C26 441 26 441 27.512 439.082L29 438z" fill="#d4edfc"/><path d="M563 127c5.675 1.481 5.675 1.481 7.25 4l.75 2 2 2c-3 0-3 0-4.824-1.496l-1.863-1.941-1.887-1.934C563 128 563 128 563 127z" fill="#fee0df"/><path d="M468 68h9v3h3v2l-4.875-1.375-2.742-.773C470 70 470 70 468 68z" fill="#f9dcde"/><path d="M446 60h8v2l2.875.375C460 63 460 63 462 65c-5.527-.727-10.7-2.334-16-4v-1z" fill="#fbe1d8"/><path d="M294 32l2 4h-2l-2 4-2-2h-3l7-6z" fill="#da6e78"/><path d="M558 480l9 2-1 3h-8v-5z" fill="#ddf5dd"/><path d="M549 469h5v2l2 1-1 1-1 7h-1l-.312-2.875c-.373-3.416-.373-3.416-3.687-5.125h3v-2l-3-1z" fill="#9fbda4"/><path d="M130 465l-1 3-1-2c-2.622 1.049-3.794 1.649-5.25 4.125L122 472c-.687-2.312-.687-2.312-1-5 2.264-3.995 4.987-2.981 9-2z" fill="#7aa6e3"/><path d="M659 297l3 1v14h-1l-2-15z" fill="#e6f9ed"/><path d="M321 182l6.875.313 3.867.176L335 183l2 3c-5.418-.692-10.682-1.758-16-3v-1z" fill="#cc7078"/><path d="M295 167l6 2 1 2 4 2v2c-4.596-1.487-7.47-3.798-11-7v-1z" fill="#d46f75"/><path d="M391.688 102.938l3.012.027L397 103v1l-1.828.078c-5.277.325-5.277.325-9.734 2.984L384 109l-1-5c3.149-1.05 5.388-1.101 8.688-1.062z" fill="#c36364"/><path d="M281 96h6v3l-4 1-1-2-2 6c-.931-2.606-1.149-3.642-.062-6.25L281 96z" fill="#fcdeda"/><path d="M204 87v2h-3v2l2 1-11 2c4-3 4-3 6-3v-2c3.75-2 3.75-2 6-2z" fill="#ce6d70"/><path d="M534 608l1 2h-2l-1 3h-3v3h-5c2.528-2.799 4.204-4.458 8-5v-2l2-1z" fill="#caefd3"/><path d="M575 574c0 3 0 3-1.75 5.043l-2.25 2.145-2.25 2.168L567 585l-2-1 3.313-3.875 1.863-2.18C572 576 572 576 575 574z" fill="#ddf5e5"/><path d="M78 544l10 1v2l4 1c-5.654.346-9.03-.566-14-3v-1z" fill="#8baae0"/><path d="M659 527l2 1-7 7-3-1c2.578-2.648 4.916-4.944 8-7z" fill="#e6f4e5"/><path d="M570 472h4v3l2 1-1 2-5-1v-5z" fill="#e5f6de"/><path d="M623 468l1 2h-2v3c-1.875-.312-1.875-.312-4-1l-2-3c2.463-1.231 4.28-1.072 7-1z" fill="#74aa87"/><path d="M167 398c4.248.472 6.2 2.967 9 6-2.25.25-2.25.25-5 0-2.312-1.875-2.312-1.875-4-4v-2z" fill="#5c9ce1"/><path d="M61 254h1c-.514 4.969-1.234 9.29-3 14h-2c.539-5.277 1.773-9.256 4-14z" fill="#81a3e0"/><path d="M149 238l2 1 1 3 3-2 1 3c-1.812 1.063-1.812 1.063-4 2l-3-1v-6z" fill="#f5cfca"/><path d="M95 189l2 1v2h-2l-1 4h-2l-1 4-2-1 6-10z" fill="#ca6972"/><path d="M357 119v3l-7 1-2-2c6.75-2 6.75-2 9-2z" fill="#c3515d"/><path d="M296 105l5 2v10h-1v-8l-3 1-1-5z" fill="#fae9ea"/><path d="M677 499h1c.75 2.75.75 2.75 1 6-1.812 2.375-1.812 2.375-4 4h-2l4-10z" fill="#d0eedc"/><path d="M586 466h3v6c-3 1-3 1-6 0l1-3h4l-2-1v-2z" fill="#f7fcf1"/><path d="M124 466l4 1-1 5h-4v-5l1-1z" fill="#5892f3"/><path d="M147 461l4.375-.187 2.461-.105L156 461l2 3-6-2v2l-6-1 1-2z" fill="#c9eafd"/><path d="M622.063 433.938L625 434l-4 1-1 4h-2l1 3h-2c1.016-7.98 1.016-7.98 5.063-8.062z" fill="#8dc093"/><path d="M129 378l13 1v3l-13-3v-1z" fill="#daecfc"/><path d="M66 237l2 1-1.875 4.75-1.055 2.672L62 252c.595-10.558.595-10.558 4-15z" fill="#dff1fd"/><path d="M146 232l2 1c1.283 3.85 1.066 6.947 1 11-2.106-1.708-2.938-2.521-3.293-5.262l.105-2.426.082-2.449L146 232z" fill="#fae9e5"/><path d="M74 224h2c.366 4.517.366 4.517-1.375 6.813C73 232 73 232 71 232l3-8z" fill="#6498dd"/><path d="M572 136h5l1 3 2 1-1 3-3.5-2.937-1.969-1.652L572 137v-1z" fill="#f9e0d9"/><path d="M416 116l1.75.563c2.457.478 3.894.195 6.25-.562l-1 4h-5l-2-4z" fill="#f4cbbe"/><path d="M356 74l1 4h-2v5h-3v-6h4v-3z" fill="#cd544f"/><path d="M360 71h10l-1 4-1-1-4.062-.562L360 73v-2z" fill="#c76265"/><path d="M319 20c-2 3-2 3-4.5 3.813L312 24l-2-2c5.625-3.125 5.625-3.125 9-2z" fill="#d16266"/><path d="M266 649l1 4-4.375-.375-2.461-.211C258 652 258 652 256 650c7.75-1 7.75-1 10-1z" fill="#77a5e4"/><path d="M563.063 582.938L566 583c-4.75 4.875-4.75 4.875-7 6v-5c1-1 1-1 4.063-1.062z" fill="#88a78b"/><path d="M608 484h10l-1 3h-7l-1 5h-1v-8z" fill="#88b195"/><path d="M395 108h3v5l-9-1c4-2 4-2 6-2v-2z" fill="#fefaf4"/><path d="M390 87l1 2h5l-1 2-3.812.125-2.145.07C387 91 387 91 384 89l6-2z" fill="#c54e4f"/><path d="M213 81l2 1c-3.61 3.291-6.126 4.547-11 5 2.546-2.971 5.422-4.478 9-6z" fill="#cd7178"/><path d="M352 657l1 3c2.015.733 2.015.733 4 1v3h-5v-7z" fill="#5096f0"/><path d="M123 561l4 1c.625 1.875.625 1.875 1 4l-2 2-4-6 1-1z" fill="#7096ed"/><path d="M475 539l3 1c-.812 1.938-.812 1.938-2 4l-3 1-1-4 3-2z" fill="#e2faee"/><path d="M76 539l1 4 4 1c-4.449.393-7.142-.847-11-3 3-2 3-2 6-2z" fill="#769bef"/><path d="M35 498l2 1c.633 2.285.633 2.285 1.125 5.063l.508 2.785L39 509c-2.963-2.727-3.997-5.07-5-9l1-2z" fill="#789ce8"/><path d="M576 444h1v8h2v3h-7l4-1v-10z" fill="#87b895"/><path d="M517 430c1.202 4.81.537 7.39-1 12h-2l3-12z" fill="#87ac91"/><path d="M212 170l3 2c-5.75 4-5.75 4-8 4l-1 2v-3h2v-3l4 1v-3z" fill="#cb6a6f"/><path d="M490 167h5l1 4h2l-1 2-5-3v-2l-2-1z" fill="#c97372"/><path d="M408 164l2 1 1 3c-2.906 1.257-4.796 2-8 2l5-6z" fill="#f9e5d9"/><path d="M294 160h2l-1 7-6-4 1.938-.937c1.999-.897 1.999-.897 3.063-2.062z" fill="#cb655f"/><path d="M417 155l1 2c-3.473 5.83-3.473 5.83-6.141 6.691L410 164l2.938-3.937 1.652-2.215C416 156 416 156 417 155z" fill="#f8d9d3"/><path d="M286 152h2l-1 6h2l-1 2-5-5h2l1-3z" fill="#c35455"/><path d="M580 145l3.5 2.813 1.969 1.582C587 151 587 151 587 154l-4-2v-3l-3-1v-3z" fill="#d4757a"/><path d="M159 117l2 1c-2.75 4.875-2.75 4.875-5 6-.187-2.375-.187-2.375 0-5l3-2z" fill="#d26971"/><path d="M347 116l1 3 2 1v3h-2l-1 3-2-8h2v-2z" fill="#df686f"/><path d="M345 106c1.149 3.939 1.526 7.936 2 12h-2l-1 2-.062-5.312-.035-2.988C344 109 344 109 345 106z" fill="#bd594e"/><path d="M355 104h4v9c-2-3-2-3-2-6l-4-1h2v-2z" fill="#f9d8da"/><path d="M376 98h4l3 6h-4v-4h-3v-2z" fill="#c16563"/><path d="M191 90h7c-3.75 3-3.75 3-6 3v2l-4 1 1-4h2v-2z" fill="#f8dad8"/><path d="M368 84h2v4h-8l-1-2h7v-2z" fill="#fce1e3"/><path d="M265 56l8 1v2l-7 1-1-4z" fill="#f7ddd8"/><path d="M407 34c6.646 1.477 6.646 1.477 8.438 4.125L416 40l-2 1v-2h-2v-2l-5-2v-1z" fill="#fae3d8"/><path d="M348 583h10l-3 7c-1-3-1-3-1-5l-6-1v-1z" fill="#7499d7"/><path d="M88 472v4l-7-1-1-2 8-1z" fill="#c7dafd"/><path d="M127 467h3v6h-6l3-1v-5z" fill="#6f91e5"/><path d="M600 451h7l-1 3h-6v-3z" fill="#e8f9eb"/><path d="M619 198h2c2 3 2 3 1.625 5.188L622 205l-3-1v-6z" fill="#ca686f"/><path d="M148 132l-1 4-4 1v-4c2-1 2-1 5-1z" fill="#e0505c"/><path d="M149 128l2 2c-2 2-2 2-5.062 2.5L143 133l-1 2v-3l7-4z" fill="#c55a5f"/><path d="M379 107l4 1-3 8h-1v-9z" fill="#b96a6d"/><path d="M366 74l-2 2h-3v3l-3-1v-3c2.709-1.354 5.009-1.065 8-1z" fill="#fbf4e5"/><path d="M420 48l4 4v3l4 1c-2.312.313-2.312.313-5 0-2.242-2.861-3-4.341-3-8z" fill="#d17878"/><path d="M463 644v2l-7 2-1-3c2.928-.976 4.956-1.082 8-1z" fill="#75a680"/><path d="M338 620c.934 3.01 1.044 3.867 0 7l2 1-2 1-2-1v-6h2v-2z" fill="#dbe1fc"/><path d="M219 545l8 5c-3.623 1.208-4.641.543-8-1v-4z" fill="#6292d8"/><path d="M656 472h5l-1 4-5-1 1-3z" fill="#95ba98"/><path d="M625 470h8l1 2c-3.325 1.108-5.622.845-9 0v-2z" fill="#effbee"/><path d="M662 445v2h-9v-2c6.75-1.125 6.75-1.125 9 0z" fill="#f6fef7"/><path d="M577 304l1 3h2l-1 9h-1l-1-12z" fill="#95bd9f"/><path d="M163 225c1 3 1 3 1 6l-5 1a56.54 56.54 0 0 1 4-7z" fill="#f6d2c7"/><path d="M171 210h2c-.615 3.995-2.706 6.745-5 10l-1-4 3-1 1-5z" fill="#c16766"/><path d="M482 160h3v2l3 1-2 2-6-3 2-2z" fill="#d36b76"/><path d="M411 117l2 1-2 3c-2.602.293-2.602.293-5.625.188l-3.039-.082L400 121l1-2 3.875.125c2.144.117 2.144.117 4.125-.125l2-2z" fill="#c25e5c"/><path d="M351 84l4 1-1 4h-5v-2l2-1v-2z" fill="#f8d4d1"/><path d="M320 83h3l1 4-6 2 2-6z" fill="#cd616a"/><path d="M384 73h8c-2.853 2.325-5.541 3.751-9 5l1-5z" fill="#fcd8cd"/><path d="M338 66h5v4l-5-1v-3z" fill="#f5d0cc"/><path d="M440 59l12 3v1h-8v-2h-4v-2z" fill="#c16260"/><path d="M357 584l2 4-3 4h-2l3-8z" fill="#dce4fc"/><path d="M457 554l1 2c-5.625 4-5.625 4-9 4v-2l8-4z" fill="#7fae88"/><path d="M69 540l9 4c-3.29 1.097-4.713.8-8 0l-1-4z" fill="#def2fa"/><path d="M650 477c1.875.313 1.875.313 4 1l2 3h-6v-4z" fill="#77a281"/><path d="M157 474h2l-1 4h-9v-1l3.438-.937c3.35-.692 3.35-.692 4.563-2.062z" fill="#6a94e7"/><path d="M201 469h1c.167 4.921.248 8.503-2 13h-1c-.235-4.819.548-8.463 2-13z" fill="#daeaf9"/><path d="M136 466h1v8l-3-1c.875-4.75.875-4.75 2-7z" fill="#f9fcff"/><path d="M544 465h5l-1 4h-4v-4z" fill="#cfe4cb"/><path d="M119 463c1.238 3.576.749 6.337 0 10l-2-1c-.25-5.625-.25-5.625 2-9z" fill="#c2e0fc"/><path d="M134 457h4v4h-2l-1 2-1-6z" fill="#d7ecfa"/><path d="M128 456h2v3l4-1v3l-7-1 1-4z" fill="#689de7"/><path d="M600 441l4 1v3l-5-1 1-3z" fill="#a0af9c"/><path d="M144 382v1l-10 1v-2c3.283-1.642 6.425-.519 10 0z" fill="#6192e1"/><path d="M137 213c2.645 3.125 3.844 6.088 5 10h-2c-3-6.625-3-6.625-3-10z" fill="#fad1d3"/><path d="M306 108c1.803 3.607 2.466 6.084 3 10h-3v-10z" fill="#fff9f0"/><path d="M537 107l7 4v2h-4c-3-3.214-3-3.214-3-6z" fill="#c66a6d"/><path d="M389 107h5l1 3h-7l1-3z" fill="#c5767e"/><path d="M321 67h3l-1 8h-1v-5h-2l1-3z" fill="#ffe8de"/><path d="M301 64l1 2h3v4h-4v-6z" fill="#db4d4e"/><path d="M337 628c3.607 2.404 3.855 3.947 5 8h-3l-2-8z" fill="#7da1e5"/><path d="M130 465h3v5l-3 1v-6z" fill="#608bf2"/><path d="M80 462c5.75-.125 5.75-.125 8 1l-1 2-8-1 1-2z" fill="#e6f6fe"/><path d="M120 460l3 1-1.875.75c-2.476 1.456-3.076 2.628-4.125 5.25l-1-3h2v-3l2-1z" fill="#7196d2"/><path d="M564 439h7l-1 2-7 1 1-3z" fill="#e2fae1"/><path d="M540 396l3 1-7 6 2-6 2-1z" fill="#ccecd5"/><path d="M137 270c1.102 4.408.587 5.892-1 10h-2l3-10z" fill="#c6e4f5"/><path d="M539 216l2 1 1 6h-3v-7z" fill="#fcf6ec"/><path d="M80 211h4v2h-3l-1 3h-2c.875-3.875.875-3.875 2-5z" fill="#96a9dd"/><path d="M226 163v3c-2 1.688-2 1.688-4 3l-2-2 6-4z" fill="#f7e1d4"/><path d="M121 155h2c-.687 2.438-.687 2.438-2 5-2.625.813-2.625.813-5 1l5-6z" fill="#c55f63"/><path d="M426 142c.75 1.75.75 1.75 1 4-1.937 2.25-1.937 2.25-4 4l-1-2 4-6z" fill="#f4ded0"/><path d="M275 144l4 1 1 4h-3l-2-5z" fill="#c1656a"/><path d="M132 137h2c-.75 4.75-.75 4.75-3 7-.625-1.812-.625-1.812-1-4l2-3z" fill="#feefe6"/><path d="M387 111c2 3.75 2 3.75 2 6l2 1-5-1v-5l1-1z" fill="#fefbf2"/><path d="M288 104h1v5l-5 1v-3h4v-3z" fill="#b86260"/><path d="M300 70c1.063 1.813 1.063 1.813 2 4l-1 3-4-1 1-4 1 1 1-3z" fill="#fadccf"/><path d="M304 20l1 2h5c-2.386 1.892-4.072 3.024-7 4l1-6z" fill="#f9e3db"/></svg>